<svg width="529" height="134" viewBox="0 0 529 134" fill="none" xmlns="http://www.w3.org/2000/svg">
<path d="M0 82.7937L42.5279 19.2129L7.32037 79.3002H93.4219L0 82.7937Z" fill="#0D0D0D"/>
<path d="M39.9026 72.036L46.3188 25.4665L65.2016 25.0891C72.7296 24.9387 77.7127 29.3577 77.8512 36.3212C77.9636 41.9672 75.0435 46.6069 70.2529 48.7109C73.7295 49.9594 75.7969 52.9305 75.878 57.0082C76.0565 65.9791 69.701 71.4406 58.7854 71.6587L39.9026 72.036ZM62.8017 33.7978L54.8973 33.9557L53.4747 44.4648L61.5673 44.3031C65.5823 44.2229 68.0467 41.9143 67.9743 38.2758C67.9169 35.39 66.0639 33.7326 62.8017 33.7978ZM60.0395 52.6806L52.3233 52.8347L50.8969 63.1557L58.8013 62.9977C63.3809 62.9062 65.8503 60.8486 65.7779 57.21C65.718 54.1988 63.7408 52.6066 60.0395 52.6806ZM126.276 43.5121C126.585 59.0701 116.159 71.2653 101.981 71.5486C89.8736 71.7906 81.6174 63.7342 81.3765 51.6266C81.067 36.0686 91.4293 23.8119 105.607 23.5286C117.715 23.2867 126.035 31.4045 126.276 43.5121ZM115.819 44.7252C115.671 37.2599 111.694 32.9463 104.919 33.0817C97.2023 33.2359 91.6408 40.7525 91.8318 50.3508C91.9778 57.6906 96.0187 62.0657 102.731 61.9316C110.447 61.7774 116.009 54.2607 115.819 44.7252ZM132.294 52.1781L136.246 23.6695L146.032 23.4739L142.144 51.9812C141.319 57.8343 144.022 61.232 149.668 61.1191C155.314 61.0063 159.072 57.4795 159.897 51.6265L163.849 23.1179L173.635 22.9223L169.572 52.1235C167.977 63.4519 160.71 70.3751 148.916 70.6107C138.439 70.8201 130.76 63.3797 132.294 52.1781ZM186.305 69.1105L176.581 69.3048L182.997 22.7352L192.721 22.5409L207.869 52.1113L211.98 22.1561L221.704 21.9617L215.287 68.5313L205.564 68.7256L190.415 39.1552L186.305 69.1105ZM226.62 31.0263L227.88 21.8383L263.45 21.1275L262.19 30.3155L249.329 30.5724L244.174 67.9541L234.387 68.1496L239.543 30.768L226.62 31.0263ZM277.332 49.5936L266.033 21.0759L276.384 20.8691L282.085 36.131C282.547 37.3142 282.948 38.4986 283.225 39.811C283.764 38.545 284.431 37.3393 285.283 36.0043L295.266 20.4917L306.433 20.2686L287.118 49.398L284.647 67.1453L274.861 67.3409L277.332 49.5936Z" fill="#0D0D0D"/>
<path d="M119.207 133.045C105.559 133.417 97.4857 124.598 97.1406 111.886C96.6739 94.6918 107.918 82.1996 123.573 81.7727C135.884 81.4371 143.51 88.5941 144.204 99.3547L133.031 99.6594C132.079 94.1951 127.932 91.8978 122.513 92.0456C113.414 92.2937 108.009 100.342 108.295 110.913C108.492 118.138 112.573 122.982 119.331 122.797C125.352 122.633 129.372 120.247 131.49 114.431L142.998 114.118C139.509 126.197 131.183 132.718 119.207 133.045ZM196.128 101.555C196.578 118.147 185.551 131.236 170.431 131.648C157.518 132 148.65 123.471 148.299 110.558C147.849 93.966 158.807 80.8121 173.927 80.3998C186.84 80.0477 195.777 88.642 196.128 101.555ZM184.984 102.93C184.767 94.968 180.492 90.3978 173.267 90.5948C165.037 90.8192 159.163 98.8799 159.441 109.116C159.654 116.944 163.998 121.579 171.156 121.384C179.386 121.16 185.26 113.099 184.984 102.93ZM210.83 129.743L200.459 130.026L206.943 80.3031L217.313 80.0203L233.7 111.444L237.853 79.4603L248.223 79.1776L241.739 128.9L231.369 129.183L214.983 97.7597L210.83 129.743ZM253.537 88.808L254.811 78.9979L292.745 77.9637L291.472 87.7737L277.756 88.1476L272.546 128.06L262.109 128.345L267.319 88.4322L253.537 88.808ZM323.621 126.668L292.845 127.507L299.329 77.7842L330.105 76.945L328.831 86.7551L308.492 87.3096L307.162 97.5229L325.16 97.0322L323.938 106.305L305.941 106.796L304.556 117.412L324.894 116.858L323.621 126.668ZM333.789 92.4449C333.517 82.4092 340.566 75.7224 351.606 75.4215C361.106 75.1624 368.71 81.5166 369.281 90.205L358.777 90.4914C358.277 86.8895 355.406 84.6914 351.325 84.8027C346.641 84.9304 344.02 87.0105 344.118 90.6233C344.194 93.4333 345.778 95.064 349.218 95.9745L356.299 97.857C363.651 99.866 367.241 103.852 367.417 110.342C367.679 119.976 360.559 126.531 349.386 126.836C338.614 127.129 331.498 121.498 330.908 112.074L341.412 111.788C341.712 115.462 344.783 117.588 349.6 117.456C354.417 117.325 357.238 115.172 357.143 111.693C357.076 109.218 355.906 108.045 352.736 107.194L345.454 105.317C338.172 103.44 333.962 98.8008 333.789 92.4449ZM371.795 85.5836L373.069 75.7736L411.004 74.7393L409.73 84.5493L396.015 84.9233L390.805 124.836L380.368 125.121L385.578 85.2078L371.795 85.5836Z" fill="#0D0D0D"/>
<path d="M428.065 54.8477L336.734 59.0398L423.184 57.2931L407.847 118.428L428.065 54.8477Z" fill="#0D0D0D"/>
<path d="M529 0L337 6.84998L518.74 5.6661L500 38.0824L529 0Z" fill="#0D0D0D"/>
<path d="M325.234 38.1533L326.596 25.4341L330.94 25.2115L329.607 37.9293C329.321 40.5408 330.569 42.0127 333.076 41.8842C335.582 41.7557 337.203 40.1369 337.488 37.5253L338.85 24.8061L343.195 24.5835L341.793 37.6119C341.241 42.6665 338.108 45.8428 332.872 46.1111C328.221 46.3495 324.707 43.1508 325.234 38.1533ZM345.33 28.5509L345.763 24.4518L361.555 23.6425L361.122 27.7416L355.412 28.0342L353.638 44.7118L349.294 44.9345L351.068 28.2569L345.33 28.5509ZM368.248 33.6592L363.07 23.5649L367.776 23.3237L369.232 26.1252C369.727 27.0772 370.609 29.0425 371.244 30.5457L376.02 22.9012L381.312 22.63L373.79 33.3752L379.105 43.4067L374.203 43.6579L373.055 41.3991C372.527 40.365 371.366 37.8555 370.763 36.4344L365.82 44.0875L360.417 44.3644L368.248 33.6592ZM400.444 30.3897C400.797 37.2967 396.333 42.8588 390.039 43.1814C384.664 43.4569 380.885 39.9925 380.611 34.6173C380.258 27.7103 384.692 22.1217 390.987 21.7991C396.362 21.5237 400.17 25.0144 400.444 30.3897ZM395.816 31.0736C395.647 27.7594 393.821 25.8983 390.813 26.0524C387.387 26.228 385.02 29.6443 385.238 33.9055C385.404 37.164 387.26 39.0515 390.24 38.8988C393.665 38.7233 396.032 35.307 395.816 31.0736ZM420.106 24.4953C416.458 24.6823 414.143 28.0122 414.376 32.5797C414.542 35.8383 416.508 37.6922 419.599 37.5338C422.551 37.3825 424.396 35.7801 424.817 33.0779L419.386 33.3562L419.802 29.4813L429.272 28.9961L428.008 40.9005L424.276 41.0917L424.27 39.3328C423.302 40.6111 421.285 41.5801 419.141 41.69C413.682 41.9697 410.02 38.6111 409.739 33.0966C409.377 25.9946 413.878 20.626 420.45 20.2892C425.324 20.0394 428.698 22.6868 429.208 27.2122L424.502 27.4534C424.007 25.4124 422.557 24.3697 420.106 24.4953ZM435.39 40.5222L431.24 40.7349L433.483 19.5654L437.632 19.3528L435.39 40.5222ZM438.583 34.3549C438.344 29.676 441.806 25.8405 446.485 25.6008C450.635 25.3881 453.549 27.7798 453.743 31.5675C453.981 36.2465 450.519 40.0819 445.84 40.3217C441.691 40.5344 438.776 38.1427 438.583 34.3549ZM442.798 33.7759C442.89 35.5862 444.067 36.7546 445.849 36.6632C447.994 36.5533 449.651 34.5696 449.528 32.1465C449.435 30.3362 448.259 29.1679 446.476 29.2592C444.332 29.3691 442.674 31.3529 442.798 33.7759ZM459.317 39.2959L455.418 39.4958L457.661 18.3263L461.811 18.1137L460.894 26.9566C461.829 25.5963 463.238 24.7422 465.16 24.6437C468.446 24.4753 471.002 26.9691 471.196 30.7569C471.446 35.6586 468.525 39.1592 464.347 39.3732C462.426 39.4717 460.541 38.6469 459.725 37.4321L459.317 39.2959ZM460.33 32.8774C460.422 34.6877 461.599 35.8561 463.381 35.7647C465.526 35.6548 467.184 33.6711 467.06 31.248C466.968 29.4377 465.791 28.2694 464.009 28.3607C461.864 28.4706 460.206 30.4544 460.33 32.8774ZM477.269 38.739C474.734 38.8689 472.928 37.3977 472.81 35.0861C472.662 32.1896 474.607 30.3586 478.296 29.8624L482.178 29.3284L482.193 29.0763C482.289 27.6752 481.443 26.9646 479.883 27.0446C478.296 27.1259 477.439 27.84 477.312 29.1868L473.691 29.3724C474.024 26.0324 476.351 24.0423 480.167 23.8467C484.261 23.6369 486.583 25.9193 486.164 29.7384L485.271 37.9658L481.623 38.1528L481.556 36.2854C480.983 37.6551 479.246 38.6376 477.269 38.739ZM478.782 35.5619C480.509 35.4734 481.712 34.4344 481.856 32.8633L481.929 32.1056L479.711 32.4148C477.658 32.6875 476.936 33.3109 476.99 34.3692C477.031 35.1769 477.668 35.619 478.782 35.5619ZM492.505 37.5951L488.355 37.8078L490.598 16.6384L494.748 16.4257L492.505 37.5951Z" fill="#0D0D0D"/>
</svg>
