<svg width="42" height="53" viewBox="0 0 42 53" fill="none" xmlns="http://www.w3.org/2000/svg">
<path d="M12.3466 47.778C12.2687 47.9491 12.1578 48.1031 12.0201 48.231C11.8824 48.3589 11.7207 48.4583 11.5444 48.5234C11.368 48.5884 11.1805 48.6179 10.9927 48.6101C10.8049 48.6023 10.6206 48.5573 10.4502 48.4778C10.2226 48.3381 10.0169 48.1655 9.83962 47.9657C9.3752 47.4699 8.9462 46.9421 8.5558 46.3861C8.53115 46.3557 8.45529 46.2704 8.38134 46.1965C8.36562 46.1792 8.34546 46.1666 8.32306 46.1601C8.30067 46.1536 8.27691 46.1533 8.25438 46.1594C8.23186 46.1655 8.21144 46.1776 8.19536 46.1945C8.17929 46.2114 8.16818 46.2324 8.16326 46.2552C8.16326 46.2552 8.16326 46.2552 8.16326 46.2685C8.17957 46.5506 8.22533 46.8303 8.2998 47.1029C8.55893 47.9131 8.9068 48.6922 9.33709 49.4259C9.69929 50.0574 10.3725 51.0302 9.90599 51.6503C9.73112 51.8751 9.50278 52.0525 9.24177 52.1665C8.98077 52.2804 8.69541 52.3272 8.41168 52.3027C8.36102 52.2949 8.31281 52.2757 8.27073 52.2464C8.22866 52.2172 8.19384 52.1787 8.16895 52.1339C7.76503 51.4304 7.19233 50.3741 6.89082 49.8185C6.63291 49.3425 6.51155 49.1092 6.46793 49.0467C6.41708 48.9744 6.34047 48.9245 6.25389 48.907C6.1673 48.8896 6.07733 48.906 6.00249 48.9529C5.92764 48.9998 5.87363 49.0736 5.85156 49.1591C5.8295 49.2447 5.84105 49.3354 5.88386 49.4126C5.9142 49.462 6.09435 49.7919 6.28588 50.1465C6.47741 50.5011 6.67653 50.8671 6.87375 51.2274C6.9534 51.3697 7.09562 51.6352 7.19613 51.821C7.22102 51.8733 7.22946 51.932 7.22031 51.9892C7.21117 52.0464 7.18488 52.0995 7.14493 52.1415C6.90763 52.3831 6.59123 52.5312 6.25365 52.5587C5.25238 52.5587 4.91294 51.5346 4.52039 50.8349L3.53619 49.077C3.49487 48.9999 3.42651 48.9408 3.34425 48.911C3.26199 48.8813 3.17164 48.883 3.09055 48.9158C3.04673 48.9353 3.00745 48.9637 2.97521 48.9992C2.94297 49.0347 2.91849 49.0765 2.90332 49.122C2.88816 49.1675 2.88264 49.2157 2.88712 49.2635C2.89161 49.3112 2.90599 49.3575 2.92937 49.3994L4.35352 51.9443C4.36879 51.9712 4.37781 52.0012 4.37992 52.0321C4.38202 52.063 4.37716 52.094 4.36569 52.1227C4.35423 52.1515 4.33644 52.1773 4.31365 52.1983C4.29087 52.2193 4.26366 52.2348 4.23405 52.2439L4.16578 52.2628C3.1171 52.5188 2.47045 51.6276 1.94706 50.8368C1.41506 49.9911 0.960008 49.0994 0.587389 48.1724C-0.0592624 46.6705 -0.0971891 45.1838 0.117097 43.5814C0.228981 42.7375 0.653761 40.8962 0.953382 39.7887C1.57917 37.4904 2.02481 36.1857 2.72835 34.1718C4.41609 29.3494 6.49069 24.6692 8.71699 20.0763C8.86301 19.7748 9.44139 18.5042 9.79601 17.8007C9.80909 17.7731 9.83105 17.7507 9.85837 17.737C9.88569 17.7234 9.91679 17.7193 9.94671 17.7254C9.97663 17.7315 10.0036 17.7475 10.0234 17.7708C10.0432 17.794 10.0546 17.8233 10.0558 17.8538C10.0861 18.3374 10.1317 19.0371 10.1601 19.2704C10.2473 19.9929 10.3952 20.6888 10.5394 21.3563C10.729 22.2704 10.9186 23.1332 10.8599 23.7419C10.8428 23.941 10.6702 24.7299 10.5109 25.4922C10.1506 27.1838 9.65568 29.4973 9.51345 31.0428C9.51345 31.1319 9.49449 31.2325 9.48311 31.3443V31.3576C9.2821 33.3488 9.20056 35.448 9.96099 37.3406C10.0837 37.6403 10.2282 37.9305 10.3934 38.2091C10.5227 38.408 10.6652 38.5981 10.82 38.778C10.8807 38.8505 10.9217 38.9375 10.939 39.0305C10.9563 39.1235 10.9493 39.2194 10.9186 39.309C10.492 40.5795 10.2265 42.0131 10.6171 43.3273C10.8523 44.1238 11.2903 44.8444 11.7246 45.5479C11.8061 45.6788 11.9142 45.8381 12.0299 45.9954C12.204 46.2358 12.3253 46.5103 12.3858 46.8008C12.4462 47.0914 12.4445 47.3914 12.3807 47.6813C12.3655 47.7154 12.3561 47.7515 12.3466 47.778Z" fill="currentColor"/>
<path d="M21.3743 43.0015V47.9718C21.3746 48.3181 21.2644 48.6554 21.0598 48.9347C20.8552 49.2141 20.5668 49.4208 20.2365 49.5249H20.2232C19.7776 49.6634 19.2296 49.8814 18.9451 50.2247C18.5203 50.7348 18.3155 51.4023 18.3155 52.3979C18.3132 52.4945 18.3208 52.5911 18.3383 52.6861C18.3445 52.7162 18.3439 52.7473 18.3366 52.7772C18.3292 52.807 18.3154 52.8348 18.2959 52.8586C18.2765 52.8824 18.252 52.9016 18.2242 52.9147C18.1964 52.9278 18.1661 52.9346 18.1354 52.9346H15.1145C15.0943 52.9217 15.0753 52.9071 15.0576 52.8909C14.9097 52.743 14.8376 52.3941 14.8566 51.9105C14.8544 51.8228 14.8189 51.7392 14.7573 51.6767C14.6957 51.6142 14.6126 51.5776 14.5249 51.5742C14.4372 51.5708 14.3515 51.601 14.2853 51.6585C14.219 51.7161 14.1772 51.7967 14.1682 51.884C14.146 52.2077 14.1794 52.5329 14.2668 52.8454C14.2698 52.8558 14.2702 52.8666 14.2683 52.8772C14.2663 52.8877 14.262 52.8977 14.2556 52.9063C14.2492 52.9149 14.2409 52.9219 14.2313 52.9268C14.2218 52.9317 14.2112 52.9344 14.2005 52.9346H12.873C12.8494 52.9196 12.8271 52.9025 12.8067 52.8834C12.6777 52.7449 12.6322 52.415 12.6758 51.9579C12.6802 51.913 12.6756 51.8676 12.6625 51.8244C12.6493 51.7812 12.6277 51.741 12.599 51.7062C12.5703 51.6713 12.535 51.6424 12.4952 51.6212C12.4553 51.6 12.4117 51.5868 12.3667 51.5825C12.3218 51.5781 12.2764 51.5826 12.2332 51.5958C12.19 51.609 12.1498 51.6305 12.115 51.6593C12.0801 51.688 12.0512 51.7232 12.03 51.7631C12.0088 51.803 11.9956 51.8466 11.9912 51.8916C11.9495 52.211 11.9655 52.5354 12.0387 52.8492C12.0413 52.8593 12.0415 52.8699 12.0394 52.8801C12.0373 52.8903 12.0328 52.9 12.0264 52.9082C12.02 52.9164 12.0118 52.9231 12.0024 52.9277C11.993 52.9322 11.9827 52.9346 11.9723 52.9346H10.9729C10.1727 52.9346 10.3092 51.6071 10.5292 51.1501C10.7222 50.7593 11.0533 50.4539 11.4584 50.293C11.5873 50.2418 11.7239 50.2057 11.8566 50.1621C12.7365 49.8701 13.5045 49.2765 13.6467 48.3227C13.806 47.2493 13.789 46.2974 13.8041 45.2108C13.8155 44.2816 13.8231 43.3732 13.8307 42.2335C13.8307 42.1763 13.8451 42.12 13.8725 42.0697C13.8999 42.0194 13.9394 41.9768 13.9875 41.9457C14.0355 41.9146 14.0906 41.896 14.1477 41.8916C14.2048 41.8873 14.262 41.8972 14.3143 41.9206H14.3313C14.5764 42.0295 14.8301 42.1177 15.0899 42.1842C16.8043 42.6304 18.5778 42.8063 20.3465 42.7057L21.0083 42.6659C21.0545 42.6633 21.1008 42.67 21.1443 42.6856C21.1879 42.7012 21.2279 42.7253 21.262 42.7566C21.2961 42.7879 21.3236 42.8257 21.3429 42.8677C21.3622 42.9098 21.3729 42.9553 21.3743 43.0015Z" fill="currentColor"/>
<path d="M27.9699 52.5855C27.9977 52.6148 28.0163 52.6516 28.0234 52.6914C28.0305 52.7312 28.0258 52.7722 28.0099 52.8093C27.9939 52.8464 27.9675 52.878 27.9337 52.9003C27.9 52.9225 27.8605 52.9344 27.8201 52.9344H24.3195C24.2966 52.9214 24.2756 52.9055 24.2569 52.887C24.109 52.7391 24.035 52.3902 24.054 51.9066C24.0575 51.8156 24.0247 51.7269 23.9628 51.66C23.901 51.5932 23.815 51.5536 23.724 51.5501C23.633 51.5466 23.5443 51.5794 23.4774 51.6413C23.4106 51.7031 23.371 51.789 23.3675 51.8801C23.3455 52.2057 23.3789 52.5327 23.4661 52.8472C23.4691 52.8574 23.4696 52.8682 23.4676 52.8787C23.4657 52.8892 23.4613 52.899 23.4549 52.9075C23.4484 52.916 23.4401 52.9228 23.4305 52.9275C23.4209 52.9322 23.4104 52.9346 23.3997 52.9344H22.0723C22.0446 52.9198 22.0196 52.9006 21.9983 52.8775C21.8694 52.7391 21.822 52.4092 21.8656 51.9521C21.87 51.9072 21.8654 51.8618 21.8522 51.8186C21.8391 51.7754 21.8175 51.7352 21.7888 51.7004C21.7601 51.6655 21.7248 51.6366 21.685 51.6154C21.6451 51.5942 21.6015 51.581 21.5565 51.5767C21.5116 51.5723 21.4662 51.5768 21.423 51.59C21.3798 51.6032 21.3396 51.6247 21.3047 51.6534C21.2699 51.6822 21.241 51.7174 21.2198 51.7573C21.1986 51.7972 21.1854 51.8408 21.181 51.8858C21.1407 52.2073 21.1574 52.5334 21.2303 52.8491C21.2329 52.8592 21.2332 52.8698 21.2311 52.88C21.229 52.8902 21.2245 52.8998 21.2181 52.9081C21.2117 52.9163 21.2035 52.923 21.1941 52.9276C21.1847 52.9321 21.1744 52.9345 21.164 52.9344H20.1722C20.164 52.9332 20.1557 52.9332 20.1475 52.9344C19.3378 53.0236 19.6014 51.4003 19.9105 50.8959C20.2196 50.3914 21.0236 50.2834 21.5755 50.0672C21.8589 49.937 22.1018 49.7325 22.2785 49.4755C22.4551 49.2184 22.5588 48.9183 22.5786 48.607C22.6412 47.6911 22.7019 43.9079 22.6621 42.7739C22.6592 42.6923 22.6855 42.6123 22.7362 42.5484C22.787 42.4844 22.8588 42.4407 22.9389 42.4249L23.0736 42.3965C23.2632 42.3586 23.4528 42.313 23.6425 42.2562C24.4712 42.005 25.2566 41.6283 25.9712 41.1392C25.9876 41.1271 26.0076 41.1207 26.0281 41.1211C26.0485 41.1215 26.0682 41.1286 26.0842 41.1414C26.1002 41.1541 26.1116 41.1718 26.1165 41.1916C26.1214 41.2114 26.1197 41.2324 26.1115 41.2511C25.1406 43.6632 25.0987 46.3497 25.9939 48.7909C26.6083 50.4597 27.2019 51.7796 27.9699 52.5855Z" fill="currentColor"/>
<path d="M31.1894 8.20703C31.0967 8.24366 31.0062 8.28545 30.9182 8.33219C30.2606 8.69653 29.6904 9.20004 29.2475 9.80754C28.1789 11.2459 27.5309 12.9529 27.3758 14.738C27.0099 18.4909 27.8708 21.5117 29.6799 22.8183C30.5712 23.465 30.9656 25.1489 30.886 27.9669C30.8405 29.5124 30.5219 31.2039 29.8809 33.288C29.6287 34.1053 29.3442 34.9018 29.037 35.6546C28.891 36.0111 28.7355 36.3657 28.5762 36.709C28.2958 37.2875 27.9863 37.8514 27.6489 38.3986C27.5445 38.5714 27.4169 38.729 27.2697 38.867C26.714 39.3961 25.7071 39.9233 24.6679 40.3462C23.7694 40.7219 22.8355 41.0065 21.8803 41.1957C21.0089 41.3221 20.1284 41.3754 19.2481 41.355C17.1622 41.355 15.4555 41.0099 14.128 40.331C13.2283 39.8809 12.4606 39.2054 11.8998 38.3702C10.3979 36.1116 10.7051 33.1363 10.8512 31.7045C10.8644 31.5832 10.8758 31.4732 10.8853 31.3765C11.0199 29.9106 11.5035 27.6445 11.8581 25.9871C12.0819 24.9441 12.2089 24.3392 12.2374 24.068C12.3094 23.2564 12.1065 22.2949 11.8923 21.2804C11.7557 20.6337 11.6154 19.9681 11.5357 19.3063C11.4788 18.8445 11.449 18.3797 11.4466 17.9144C11.4466 17.8678 11.456 17.8216 11.4743 17.7787C11.4925 17.7358 11.5193 17.6971 11.553 17.6648C11.5867 17.6326 11.6265 17.6075 11.6702 17.591C11.7138 17.5746 11.7603 17.5672 11.8069 17.5692C12.4232 17.5958 12.8878 17.6015 13.5838 17.6072H14.2949C15.4725 17.6072 16.4492 17.5844 17.3689 17.5313C18.2279 17.4943 19.082 17.382 19.9213 17.1957C20.2482 17.107 20.5539 16.9535 20.8202 16.7443C21.7987 15.9346 23.5415 13.4599 24.6793 10.8429C24.7437 10.8299 24.8071 10.8121 24.8689 10.7898C25.0581 10.7267 25.2265 10.6133 25.3562 10.4618C25.5724 10.1754 25.635 9.02056 25.6085 7.99653C25.667 7.7133 25.7107 7.4272 25.7393 7.13939C25.7526 7.01044 25.764 6.88338 25.7753 6.76012C25.8897 5.72783 25.9024 4.6868 25.8133 3.65202C25.8107 3.62597 25.8156 3.59971 25.8273 3.57631C25.8391 3.55291 25.8572 3.53332 25.8797 3.51982C25.9021 3.50632 25.9279 3.49946 25.9541 3.50003C25.9803 3.50061 26.0057 3.5086 26.0276 3.52307C27.1654 4.31385 28.4795 5.45354 29.9681 6.74685C30.3796 7.10336 30.8006 7.46935 31.2387 7.84483C31.2693 7.86671 31.2933 7.89653 31.3082 7.93106C31.3231 7.96559 31.3283 8.00353 31.3232 8.04079C31.3181 8.07805 31.303 8.11322 31.2794 8.14251C31.2558 8.1718 31.2247 8.19411 31.1894 8.20703Z" fill="currentColor"/>
<path d="M24.5167 5.45382C24.5153 5.4723 24.5101 5.49031 24.5016 5.50675C24.493 5.52318 24.4812 5.5377 24.4668 5.54941C24.4524 5.56112 24.4358 5.56978 24.418 5.57486C24.4001 5.57995 24.3815 5.58135 24.3631 5.57898C23.8624 5.52019 22.2771 5.3609 22.0306 5.4633C21.9695 5.49685 21.9218 5.55043 21.8955 5.61501C21.8693 5.67959 21.8661 5.75124 21.8865 5.81791C21.9013 5.89019 21.9377 5.9563 21.9908 6.00755C22.0666 6.06087 22.158 6.08754 22.2506 6.0834C22.3909 6.09478 22.5312 6.09857 22.6696 6.10616H22.7265C22.8465 6.11425 22.9602 6.16299 23.0488 6.24434C23.1374 6.32569 23.1956 6.43481 23.2139 6.55369C23.3343 7.63589 23.3132 8.72915 23.1513 9.80591C23.0774 10.1586 23.0565 10.2629 22.7227 10.299C22.619 10.3126 22.5145 10.3195 22.4099 10.3198C22.3037 10.3198 22.1975 10.3198 22.0913 10.335C22.0509 10.337 22.0118 10.35 21.9783 10.3728C21.9449 10.3955 21.9183 10.4271 21.9016 10.4639C21.8724 10.5168 21.8571 10.5761 21.8569 10.6364C21.8568 10.6968 21.8719 10.7562 21.9008 10.8091C21.9298 10.8621 21.9716 10.9069 22.0225 10.9394C22.0733 10.9718 22.1316 10.9909 22.1918 10.9949L22.865 10.9741C22.8874 10.9743 22.9095 10.98 22.9293 10.9907C22.949 11.0014 22.9659 11.0168 22.9784 11.0354C22.9909 11.0541 22.9987 11.0755 23.0011 11.0979C23.0034 11.1202 23.0003 11.1428 22.992 11.1637C21.9889 13.1985 20.6747 15.0588 19.9219 15.6808C19.8147 15.7579 19.6955 15.8168 19.5691 15.8552C18.813 16.0205 18.044 16.1207 17.2708 16.1549C16.3795 16.2042 15.4256 16.2288 14.2746 16.2288H13.5748C13.0875 16.2288 12.6001 16.2288 12.1108 16.2023C11.2442 16.1719 10.5084 16.2307 9.86178 15.531C9.59929 15.2273 9.38387 14.8859 9.22272 14.5183C9.03918 14.1582 8.9034 13.7757 8.8188 13.3805C8.69023 12.6758 8.81518 11.9482 9.17152 11.3268C9.55078 10.6744 10.1557 10.2004 10.499 9.52336C10.8525 8.83233 11.0198 8.06109 10.9844 7.28568C10.9313 6.14788 10.5539 5.09162 10.1766 4.02777C9.96229 3.44749 9.70059 2.74964 9.86178 2.12005C10.0666 1.31601 10.7929 1.04294 11.4869 0.845716C13.0223 0.448298 14.5876 0.176853 16.1671 0.0340832C17.6311 -0.121417 19.2183 0.2844 20.6937 0.659875C21.9471 0.982252 23.3941 1.55115 24.1526 2.73068C24.5963 3.42474 24.5944 4.49427 24.5167 5.45382Z" fill="currentColor"/>
<path d="M41.433 33.6192C41.3325 36.5927 41.433 40.1635 39.4077 42.5567C38.6492 43.4479 37.7617 44.2463 37.1833 45.2646C36.638 46.2205 36.3978 47.3202 36.4949 48.4164C36.544 48.9675 36.6443 49.5128 36.7946 50.0453C36.9709 50.6901 37.4867 51.4714 36.7756 52.1047C36.3779 52.4433 35.8738 52.6313 35.3514 52.6357H35.3192C35.1741 52.6218 35.035 52.5706 34.9154 52.4873C34.7958 52.4039 34.6998 52.2911 34.6365 52.1597C34.1985 51.2817 33.0891 49.0744 33.0891 49.0744C33.0456 48.9971 32.974 48.9395 32.8892 48.9136C32.8044 48.8877 32.7129 48.8954 32.6336 48.9352C32.5543 48.9749 32.4934 49.0437 32.4635 49.1271C32.4335 49.2106 32.4369 49.3024 32.4728 49.3835L32.9279 50.288L33.4968 51.4258C33.586 51.6041 33.7452 51.8146 33.7111 52.027C33.677 52.2394 33.3963 52.3797 33.1801 52.4574C32.8998 52.5438 32.5967 52.5165 32.3363 52.3816C31.7465 52.118 31.5379 51.5377 31.261 51.0011C30.9387 50.3791 30.603 49.7628 30.3299 49.118C30.2906 49.0401 30.2233 48.9799 30.1414 48.9497C30.0595 48.9194 29.9692 48.9213 29.8887 48.955C29.8082 48.9886 29.7434 49.0515 29.7074 49.131C29.6714 49.2106 29.6668 49.3008 29.6947 49.3835C29.8653 49.7874 30.5082 51.0788 30.9975 52.0004C31.0119 52.0277 31.0201 52.0579 31.0213 52.0888C31.0226 52.1196 31.0169 52.1504 31.0047 52.1787C30.9925 52.2071 30.9741 52.2324 30.9509 52.2527C30.9277 52.2731 30.9001 52.2879 30.8704 52.2963C30.8015 52.3144 30.731 52.3258 30.6599 52.3304C30.2403 52.3563 29.822 52.2622 29.4538 52.0592C28.6725 51.6212 28.3274 50.7716 27.9462 49.9732C27.2446 48.5112 26.7383 46.795 26.7383 45.2533C26.7848 43.7322 27.1464 42.2374 27.8002 40.8632C27.9406 40.575 28.1207 40.2716 28.3388 39.9018L28.6593 39.367C29.0805 38.6924 29.466 37.9961 29.8141 37.2811C29.9848 36.9189 30.1479 36.5434 30.3034 36.166C30.6277 35.3752 30.9254 34.5389 31.189 33.6818C31.8679 31.4764 32.2054 29.671 32.2528 27.9928C32.3495 24.6382 31.7844 22.6356 30.4779 21.6894C29.8672 21.2475 29.3742 20.4624 29.0575 19.4138C28.6782 18.1546 28.5663 16.6186 28.7389 14.8512C28.8725 13.3306 29.4245 11.8768 30.3337 10.6508C31.2705 9.43712 32.744 9.00286 34.0885 9.91121C34.6265 10.3161 35.1046 10.7949 35.5088 11.3335C39.0853 15.6666 40.9172 21.7235 41.2908 27.2627C41.4459 29.3778 41.4934 31.4993 41.433 33.6192Z" fill="currentColor"/>
<path d="M24.854 10.0293C24.849 10.049 24.8395 10.0672 24.8264 10.0827C24.8132 10.0981 24.7967 10.1104 24.7781 10.1184C24.5411 10.2092 24.293 10.2679 24.0404 10.2929C23.9589 10.2929 23.8755 10.3062 23.7958 10.31C23.7844 10.3111 23.7729 10.3093 23.7624 10.3047C23.7519 10.3002 23.7428 10.2929 23.7359 10.2838C23.7291 10.2746 23.7247 10.2638 23.7232 10.2525C23.7217 10.2411 23.7232 10.2296 23.7275 10.2189C23.7594 10.1278 23.7854 10.0347 23.8053 9.94018C23.8337 9.79985 23.8603 9.62349 23.883 9.42248C23.883 9.38645 23.883 9.35042 23.8925 9.31249C23.902 9.27456 23.8925 9.22526 23.9058 9.17975C23.9191 9.13423 23.9058 9.11337 23.9058 9.07924C23.9058 9.04511 23.9058 9.0489 23.9058 9.03373C23.9058 9.01856 23.9058 8.98632 23.9058 8.96167C23.9058 8.91995 23.9058 8.88013 23.9058 8.83651C23.9058 8.79289 23.9058 8.75497 23.9058 8.71135V8.57671V8.44397C23.9058 8.41173 23.9058 8.38139 23.9058 8.34915C23.9058 8.31691 23.9058 8.25813 23.9058 8.21261C23.9058 8.1671 23.9058 8.15572 23.9058 8.12538V7.69302C23.9121 7.20328 23.8696 6.71413 23.7787 6.23284C23.7761 6.22185 23.7762 6.21037 23.779 6.19943C23.7819 6.1885 23.7874 6.17844 23.7951 6.17017C23.8028 6.16189 23.8125 6.15567 23.8232 6.15204C23.8339 6.14842 23.8453 6.14751 23.8565 6.1494L24.6776 6.27835C24.6906 6.2802 24.7028 6.28587 24.7126 6.29465C24.7224 6.30342 24.7294 6.31491 24.7326 6.32765C24.7762 6.48695 24.816 6.77329 24.8331 6.88328C25.0303 7.92627 24.9734 9.60453 24.854 10.0293Z" fill="currentColor"/>
</svg>

