<svg width="32" height="32" viewBox="0 0 32 32" fill="none" xmlns="http://www.w3.org/2000/svg">
<path d="M19.2001 6.39941H25.6001V12.7993H32V19.1993H19.2001V6.39941Z" fill="#32267E"/>
<path d="M6.39998 12.7993H0V19.1993H6.39998V12.7993Z" fill="#32267E"/>
<path d="M12.8002 25.5995H19.2002V31.9995H12.8002V25.5995Z" fill="#32267E"/>
<path d="M0 0H6.39998V6.39998H0V0Z" fill="#9E91F2"/>
<path d="M6.39998 25.6001H19.2002V19.2001H12.7999V12.7998H6.39988L6.39998 25.6001L0 25.6V32H6.39998V25.6001Z" fill="#9E91F2"/>
<path d="M32 25.6H25.6V32H32V25.6Z" fill="#9E91F2"/>
<path d="M12.8002 12.7999H19.2002V0H12.8002V12.7999Z" fill="#9E91F2"/>
<path d="M32 0H25.6V6.39998H32V0Z" fill="#9E91F2"/>
</svg>
