<svg width="32" height="32" viewBox="0 0 32 32" fill="none" xmlns="http://www.w3.org/2000/svg">
<path d="M17.4211 3.53375C16.2392 2.82208 14.7608 2.82208 13.5789 3.53375L12.7243 4.04833C10.6508 5.29689 8.32302 6.06305 5.9133 6.29008L5.3749 6.3408C4.31213 6.44093 3.5 7.33317 3.5 8.40065V11.1216C3.5 15.7207 5.36717 20.1227 8.6738 23.3193L14.062 28.5281C14.8639 29.3034 16.1361 29.3034 16.938 28.5281L22.3262 23.3193C25.6328 20.1227 27.5 15.7207 27.5 11.1216V8.40065C27.5 7.33317 26.6879 6.44093 25.6251 6.34081L25.0867 6.29008C22.677 6.06305 20.3492 5.29689 18.2757 4.04833L17.4211 3.53375Z" fill="url(#paint0_linear_6725_66813)"/>
<path d="M15.5893 16.208H14.1653V14.88L17.1733 12.112H12.3093V10.304H19.7333V11.936L16.8853 14.56C18.6773 14.912 20.0693 16.224 20.0693 18.288C20.0693 20.688 18.1973 22.208 15.8293 22.208C13.5413 22.208 11.7653 20.8 11.7653 18.272H13.7813C13.7813 19.616 14.6133 20.384 15.8613 20.384C17.1413 20.384 17.9893 19.552 17.9893 18.256C17.9893 17.072 17.2213 16.208 15.5893 16.208Z" fill="#0A0C22"/>
<defs>
<linearGradient id="paint0_linear_6725_66813" x1="15.5" y1="3" x2="15.5" y2="29.1096" gradientUnits="userSpaceOnUse">
<stop stop-color="#B77900"/>
<stop offset="1" stop-color="#FFD98F"/>
</linearGradient>
</defs>
</svg>
