<svg width="48" height="48" viewBox="0 0 48 48" fill="none" xmlns="http://www.w3.org/2000/svg">
<rect width="48" height="48" rx="8" fill="#EBECEC"/>
<path fill-rule="evenodd" clip-rule="evenodd" d="M24.0002 9.5C22.3396 9.5 20.7471 10.1597 19.5729 11.3339C18.3987 12.5081 18 14.3394 18 16V21C18.761 20.4211 17.5631 20.4719 17.3461 20.4719C17.1291 20.4719 16.9531 20.296 16.9531 20.0789V15.0882C16.9531 13.2192 17.6956 11.4267 19.0172 10.1051C20.3387 8.78349 22.1312 8.04102 24.0002 8.04102C25.8692 8.04102 27.6616 8.78349 28.9832 10.1051C30.3048 11.4267 31.0473 13.2192 31.0473 15.0882V20.0789C31.0473 20.296 30.8713 20.4719 30.6543 20.4719C30.4373 20.4719 30 21.296 30 20.0789V16C30 14.3394 29.6017 12.5081 28.4275 11.3339C27.2533 10.1597 25.6608 9.5 24.0002 9.5Z" fill="url(#paint0_linear_4004_50918)"/>
<path fill-rule="evenodd" clip-rule="evenodd" d="M9.02832 23.4048C9.02832 22.0811 9.55411 20.8117 10.49 19.8758C11.4259 18.9399 12.6953 18.4141 14.0189 18.4141H33.9812C35.3048 18.4141 36.5742 18.9399 37.5101 19.8758C38.446 20.8117 38.9718 22.0811 38.9718 23.4048V35.0497C38.9718 36.3733 38.446 37.6427 37.5101 38.5787C36.5742 39.5146 35.3048 40.0404 33.9812 40.0404H14.0189C12.6953 40.0404 11.4259 39.5146 10.49 38.5787C9.55411 37.6427 9.02832 36.3733 9.02832 35.0497V23.4048Z" fill="url(#paint1_linear_4004_50918)"/>
<g clip-path="url(#clip0_4004_50918)">
<rect width="17.6046" height="16.9762" transform="translate(15.1982 20.7344)" fill="url(#paint2_linear_4004_50918)"/>
<path fill-rule="evenodd" clip-rule="evenodd" d="M26.6738 30.6751C26.6738 31.1612 27.0649 31.5553 27.5473 31.5553H30.8957C30.9761 31.5553 31.0413 31.621 31.0413 31.702V35.0498V35.076H31.0417C31.0555 35.55 31.4411 35.93 31.9148 35.93C32.3885 35.93 32.7742 35.55 32.7879 35.076H32.7883V35.0498V31.5553V30.3817C32.7883 30.0576 32.5276 29.7949 32.206 29.7949H31.0413H27.5473C27.0649 29.7949 26.6738 30.189 26.6738 30.6751Z" fill="white"/>
<path fill-rule="evenodd" clip-rule="evenodd" d="M31.042 36.8093C31.042 36.3232 30.6509 35.9291 30.1685 35.9291H26.8201C26.7397 35.9291 26.6745 35.8634 26.6745 35.7824V32.4346V32.4084H26.6741C26.6604 31.9344 26.2747 31.5544 25.801 31.5544C25.3273 31.5544 24.9416 31.9344 24.9279 32.4084H24.9275V32.4346V35.9291V37.1027C24.9275 37.4267 25.1882 37.6895 25.5098 37.6895H26.6745H30.1685C30.6509 37.6895 31.042 37.2954 31.042 36.8093Z" fill="white"/>
<path fill-rule="evenodd" clip-rule="evenodd" d="M15.4468 37.4232C15.7879 37.7669 16.341 37.7669 16.6821 37.4232L19.0498 35.0374C19.1066 34.9801 19.1988 34.9801 19.2556 35.0374L21.6049 37.4046L21.6233 37.4232L21.6236 37.4229C21.9659 37.7482 22.5053 37.7422 22.8403 37.4046C23.1752 37.0671 23.1813 36.5236 22.8584 36.1787L22.8586 36.1784L22.8403 36.1599L20.388 33.6889L19.5645 32.859C19.3371 32.6299 18.9683 32.6299 18.7409 32.859L17.9174 33.6889L15.4468 36.1784C15.1056 36.5221 15.1056 37.0794 15.4468 37.4232Z" fill="#FF7201"/>
<path fill-rule="evenodd" clip-rule="evenodd" d="M15.437 29.9987C15.7781 29.655 16.3312 29.655 16.6723 29.9987L19.04 32.3845C19.0968 32.4418 19.189 32.4418 19.2459 32.3845L21.5952 30.0173L21.6136 29.9987L21.6138 29.999C21.9562 29.6736 22.4955 29.6797 22.8305 30.0173C23.1655 30.3548 23.1715 30.8982 22.8486 31.2432L22.8489 31.2435L22.8305 31.262L20.3783 33.733L19.5547 34.5628C19.3273 34.792 18.9586 34.792 18.7312 34.5628L17.9076 33.733L15.437 31.2435C15.0959 30.8997 15.0959 30.3424 15.437 29.9987Z" fill="#FF7201"/>
<path fill-rule="evenodd" clip-rule="evenodd" d="M24.9932 21.6165C24.9932 22.1026 25.3842 22.4967 25.8667 22.4967H27.9672C28.0476 22.4967 28.1128 22.5624 28.1128 22.6434L28.1124 27.7814V27.8077H28.1128C28.1266 28.2816 28.5122 28.6616 28.9859 28.6616C29.4596 28.6616 29.8453 28.2816 29.859 27.8077H29.8594V27.7814L29.8598 22.4967V21.3231C29.8598 20.999 29.5991 20.7363 29.2775 20.7363H28.1128H25.8667C25.3842 20.7363 24.9932 21.1304 24.9932 21.6165Z" fill="#FF7201"/>
<path d="M31.7446 20.7377C32.227 20.7377 32.6181 21.1318 32.6181 21.6179C32.6181 22.104 32.227 22.498 31.7446 22.498C31.2622 22.498 30.8711 22.104 30.8711 21.6179C30.8711 21.1318 31.2622 20.7377 31.7446 20.7377Z" fill="#FF7201"/>
<path fill-rule="evenodd" clip-rule="evenodd" d="M23.0586 21.61L23.0586 21.6106L23.0586 21.6113L23.0585 26.0198V26.0461H23.0581C23.0444 26.52 22.6587 26.9 22.185 26.9C21.7113 26.9 21.3257 26.52 21.3119 26.0461H21.3115V26.0201L21.3115 26.0198L21.3115 26.0196L21.3116 21.6106L21.3116 21.584H21.312C21.326 21.1102 21.7115 20.7305 22.1851 20.7305C22.6587 20.7305 23.0442 21.1102 23.0582 21.584H23.0586V21.61Z" fill="white"/>
<path fill-rule="evenodd" clip-rule="evenodd" d="M21.3115 27.78C21.3115 27.2939 20.9204 26.8998 20.438 26.8998H17.0896C17.0092 26.8998 16.944 26.8341 16.944 26.7531V21.6449V21.6187H16.9436C16.9299 21.1447 16.5442 20.7648 16.0705 20.7648C15.5968 20.7648 15.2112 21.1447 15.1974 21.6187H15.197V21.6449V26.8998V28.0734C15.197 28.3974 15.4577 28.6602 15.7794 28.6602H16.944H20.438C20.9204 28.6602 21.3115 28.2661 21.3115 27.78Z" fill="white"/>
</g>
<defs>
<linearGradient id="paint0_linear_4004_50918" x1="24.0017" y1="9.49702" x2="24.0017" y2="19.7663" gradientUnits="userSpaceOnUse">
<stop stop-color="#F9C201"/>
<stop offset="1" stop-color="#EA8D01"/>
</linearGradient>
<linearGradient id="paint1_linear_4004_50918" x1="24.0033" y1="20.8439" x2="24.0033" y2="37.9815" gradientUnits="userSpaceOnUse">
<stop stop-color="#F9C201"/>
<stop offset="1" stop-color="#EA8D01"/>
</linearGradient>
<linearGradient id="paint2_linear_4004_50918" x1="8.80417" y1="1.90736" x2="8.80417" y2="15.3601" gradientUnits="userSpaceOnUse">
<stop stop-color="#F9C201"/>
<stop offset="1" stop-color="#EA8D01"/>
</linearGradient>
<clipPath id="clip0_4004_50918">
<rect width="17.6046" height="16.9762" fill="white" transform="translate(15.1982 20.7344)"/>
</clipPath>
</defs>
</svg>
