<svg width="24" height="24" viewBox="0 0 24 24" fill="none" xmlns="http://www.w3.org/2000/svg">
<path d="M17.6605 11.2C17.4305 10.9 17.1505 10.64 16.8905 10.38C16.2205 9.78 15.4605 9.35 14.8205 8.72C13.3305 7.26 13.0005 4.85 13.9505 3C13.0005 3.23 12.1705 3.75 11.4605 4.32C8.87054 6.4 7.85054 10.07 9.07054 13.22C9.11054 13.32 9.15054 13.42 9.15054 13.55C9.15054 13.77 9.00054 13.97 8.80054 14.05C8.57054 14.15 8.33054 14.09 8.14054 13.93C8.08378 13.8825 8.03632 13.8248 8.00054 13.76C6.87054 12.33 6.69054 10.28 7.45054 8.64C5.78054 10 4.87054 12.3 5.00054 14.47C5.06054 14.97 5.12054 15.47 5.29054 15.97C5.43054 16.57 5.70054 17.17 6.00054 17.7C7.08054 19.43 8.95054 20.67 10.9605 20.92C13.1005 21.19 15.3905 20.8 17.0305 19.32C18.8605 17.66 19.5005 15 18.5605 12.72L18.4305 12.46C18.2205 12 17.6605 11.2 17.6605 11.2ZM14.5005 17.5C14.2205 17.74 13.7605 18 13.4005 18.1C12.2805 18.5 11.1605 17.94 10.5005 17.28C11.6905 17 12.4005 16.12 12.6105 15.23C12.7805 14.43 12.4605 13.77 12.3305 13C12.2105 12.26 12.2305 11.63 12.5005 10.94C12.6905 11.32 12.8905 11.7 13.1305 12C13.9005 13 15.1105 13.44 15.3705 14.8C15.4105 14.94 15.4305 15.08 15.4305 15.23C15.4605 16.05 15.1005 16.95 14.5005 17.5Z" fill="url(#paint0_linear_6888_225170)"/>
<defs>
<linearGradient id="paint0_linear_6888_225170" x1="11.9911" y1="5.02233" x2="11.9911" y2="19.2859" gradientUnits="userSpaceOnUse">
<stop stop-color="#F9C201"/>
<stop offset="1" stop-color="#EA4701"/>
</linearGradient>
</defs>
</svg>
