<svg width="25" height="24" viewBox="0 0 25 24" fill="none" xmlns="http://www.w3.org/2000/svg">
<path d="M15.445 1.25C14.078 1.25 12.975 1.25 12.108 1.367C11.208 1.487 10.45 1.747 9.84796 2.348C9.32396 2.873 9.05796 3.518 8.91896 4.276C8.78396 5.013 8.75796 5.914 8.75196 6.996C8.7509 7.19491 8.8289 7.3861 8.96881 7.5275C9.10871 7.6689 9.29905 7.74894 9.49796 7.75C9.69688 7.75106 9.88806 7.67306 10.0295 7.53316C10.1709 7.39326 10.2509 7.20291 10.252 7.004C10.258 5.911 10.286 5.136 10.394 4.547C10.499 3.981 10.666 3.652 10.909 3.409C11.186 3.132 11.575 2.952 12.309 2.853C13.064 2.752 14.065 2.75 15.5 2.75H16.5C17.936 2.75 18.937 2.752 19.692 2.853C20.426 2.952 20.814 3.133 21.092 3.409C21.368 3.686 21.548 4.074 21.647 4.809C21.749 5.563 21.75 6.565 21.75 8V16C21.75 17.435 21.749 18.436 21.647 19.192C21.548 19.926 21.368 20.314 21.091 20.591C20.814 20.868 20.426 21.048 19.692 21.147C18.937 21.248 17.936 21.25 16.5 21.25H15.5C14.065 21.25 13.064 21.248 12.308 21.147C11.575 21.048 11.186 20.867 10.909 20.591C10.666 20.347 10.499 20.019 10.394 19.453C10.286 18.864 10.258 18.089 10.252 16.996C10.2514 16.8975 10.2315 16.8001 10.1933 16.7093C10.1552 16.6185 10.0995 16.5361 10.0295 16.4668C9.95945 16.3976 9.87648 16.3428 9.78528 16.3056C9.69409 16.2684 9.59646 16.2495 9.49796 16.25C9.39947 16.2505 9.30205 16.2704 9.21126 16.3086C9.12046 16.3468 9.03808 16.4025 8.96881 16.4725C8.89953 16.5425 8.84473 16.6255 8.80752 16.7167C8.77032 16.8079 8.75144 16.9055 8.75196 17.004C8.75796 18.086 8.78396 18.987 8.91896 19.724C9.05896 20.482 9.32396 21.127 9.84896 21.652C10.45 22.254 11.209 22.512 12.109 22.634C12.975 22.75 14.078 22.75 15.445 22.75H16.555C17.923 22.75 19.025 22.75 19.892 22.634C20.792 22.512 21.55 22.254 22.152 21.652C22.754 21.05 23.012 20.292 23.134 19.392C23.25 18.525 23.25 17.422 23.25 16.055V7.945C23.25 6.578 23.25 5.475 23.134 4.608C23.013 3.708 22.754 2.95 22.152 2.348C21.55 1.746 20.792 1.488 19.892 1.367C19.025 1.25 17.922 1.25 16.555 1.25H15.445Z" fill="#0D0D0D"/>
<path d="M15.5006 11.2504C15.6995 11.2504 15.8902 11.3294 16.0309 11.47C16.1715 11.6107 16.2506 11.8015 16.2506 12.0004C16.2506 12.1993 16.1715 12.39 16.0309 12.5307C15.8902 12.6713 15.6995 12.7504 15.5006 12.7504H4.52756L6.48856 14.4304C6.63973 14.5598 6.7333 14.744 6.74868 14.9424C6.76405 15.1408 6.69998 15.3372 6.57056 15.4884C6.44113 15.6395 6.25695 15.7331 6.05854 15.7485C5.86013 15.7639 5.66373 15.6998 5.51256 15.5704L2.01256 12.5704C1.93022 12.5 1.86412 12.4125 1.81879 12.3141C1.77347 12.2157 1.75 12.1087 1.75 12.0004C1.75 11.892 1.77347 11.785 1.81879 11.6866C1.86412 11.5882 1.93022 11.5008 2.01256 11.4304L5.51256 8.43036C5.58741 8.36628 5.67415 8.31756 5.76783 8.287C5.86151 8.25644 5.9603 8.24463 6.05854 8.25224C6.15678 8.25986 6.25257 8.28675 6.34042 8.33138C6.42827 8.37601 6.50647 8.43751 6.57056 8.51236C6.63464 8.58722 6.68336 8.67396 6.71392 8.76764C6.74448 8.86132 6.75629 8.9601 6.74868 9.05835C6.74106 9.15659 6.71417 9.25237 6.66954 9.34022C6.62491 9.42808 6.56341 9.50628 6.48856 9.57036L4.52856 11.2504H15.5006Z" fill="#0D0D0D"/>
</svg>
