<svg width="24" height="24" viewBox="0 0 24 24" fill="none" xmlns="http://www.w3.org/2000/svg">
<path d="M14.7002 3.45312V4.80313C14.7002 6.07573 14.7002 6.71203 15.0962 7.10713C15.4904 7.50313 16.1267 7.50313 17.4002 7.50313H18.7502" stroke="black" stroke-width="1.08" stroke-linecap="round" stroke-linejoin="round"/>
<path d="M8.3998 11.1H15.5998M8.3998 13.8H15.5998M8.3998 16.5H12.1528M4.7998 15.6V8.4C4.7998 5.8548 4.7998 4.5813 5.5909 3.7911C6.3811 3 7.6546 3 10.1998 3H13.9546C14.3218 3 14.5063 3 14.6719 3.0684C14.8366 3.1368 14.9671 3.2664 15.2272 3.5274L18.6724 6.9726C18.9334 7.2336 19.063 7.3632 19.1314 7.5288C19.1998 7.6935 19.1998 7.878 19.1998 8.2452V15.6C19.1998 18.1452 19.1998 19.4187 18.4087 20.2089C17.6185 21 16.345 21 13.7998 21H10.1998C7.6546 21 6.3811 21 5.5909 20.2089C4.7998 19.4187 4.7998 18.1452 4.7998 15.6Z" stroke="black" stroke-width="1.08" stroke-linecap="round" stroke-linejoin="round"/>
</svg>
