<svg width="32" height="34" viewBox="0 0 32 34" fill="none" xmlns="http://www.w3.org/2000/svg">
<path d="M11.684 3.77199C12.8288 2.62725 14.3813 1.98414 16.0002 1.98414C17.6191 1.98414 19.1716 2.62725 20.3164 3.77199C21.4611 4.91673 22.1042 6.46933 22.1042 8.08824V13.0789C22.1042 13.3828 22.3505 13.6291 22.6543 13.6291C22.9582 13.6291 23.2045 13.3828 23.2045 13.0789V8.08824C23.2045 6.17751 22.4454 4.34504 21.0944 2.99395C19.7433 1.64286 17.9109 0.88383 16.0002 0.88383C14.0895 0.88383 12.2571 1.64286 10.906 2.99395C9.55496 4.34504 8.79594 6.17751 8.79594 8.08824V13.0789C8.79594 13.3828 9.04224 13.6291 9.34608 13.6291C9.64992 13.6291 9.89623 13.3828 9.89623 13.0789V8.08824C9.89623 6.46933 10.5393 4.91673 11.684 3.77199Z" fill="black" stroke="url(#paint0_linear_4004_51583)" stroke-width="0.314371" stroke-linecap="round" stroke-linejoin="round"/>
<path d="M2.37888 12.7647C1.41349 13.7301 0.871135 15.0395 0.871135 16.4048V28.0497C0.871135 29.415 1.41349 30.7244 2.37888 31.6898C3.34427 32.6552 4.65363 33.1976 6.01891 33.1976H25.9812C27.3465 33.1976 28.6559 32.6552 29.6213 31.6898C30.5867 30.7244 31.129 29.415 31.129 28.0497V16.4048C31.129 15.0395 30.5867 13.7301 29.6213 12.7647C28.6559 11.7992 27.3465 11.2569 25.9812 11.2569H6.01891C4.65363 11.2569 3.34427 11.7992 2.37888 12.7647Z" fill="black" stroke="url(#paint1_linear_4004_51583)" stroke-width="0.314371"/>
<g clip-path="url(#clip0_4004_51583)">
<path fill-rule="evenodd" clip-rule="evenodd" d="M18.6738 23.6751C18.6738 24.1612 19.0649 24.5553 19.5473 24.5553H22.8957C22.9761 24.5553 23.0413 24.621 23.0413 24.702V28.0498V28.076H23.0417C23.0555 28.55 23.4411 28.93 23.9148 28.93C24.3885 28.93 24.7742 28.55 24.7879 28.076H24.7883V28.0498V24.5553V23.3817C24.7883 23.0576 24.5276 22.7949 24.206 22.7949H23.0413H19.5473C19.0649 22.7949 18.6738 23.189 18.6738 23.6751Z" fill="white"/>
<path fill-rule="evenodd" clip-rule="evenodd" d="M23.042 29.8093C23.042 29.3232 22.6509 28.9291 22.1685 28.9291H18.8201C18.7397 28.9291 18.6745 28.8634 18.6745 28.7824V25.4346V25.4084H18.6741C18.6604 24.9344 18.2747 24.5544 17.801 24.5544C17.3273 24.5544 16.9416 24.9344 16.9279 25.4084H16.9275V25.4346V28.9291V30.1027C16.9275 30.4267 17.1882 30.6895 17.5098 30.6895H18.6745H22.1685C22.6509 30.6895 23.042 30.2954 23.042 29.8093Z" fill="white"/>
<path fill-rule="evenodd" clip-rule="evenodd" d="M7.44676 30.4232C7.78788 30.7669 8.34095 30.7669 8.68207 30.4232L11.0498 28.0374C11.1066 27.9801 11.1988 27.9801 11.2556 28.0374L13.6049 30.4046L13.6233 30.4232L13.6236 30.4229C13.9659 30.7482 14.5053 30.7422 14.8403 30.4046C15.1752 30.0671 15.1813 29.5236 14.8584 29.1787L14.8586 29.1784L14.8403 29.1599L12.388 26.6889L11.5645 25.859C11.3371 25.6299 10.9683 25.6299 10.7409 25.859L9.91739 26.6889L7.44676 29.1784C7.10564 29.5221 7.10564 30.0794 7.44676 30.4232Z" fill="#FF7201"/>
<path fill-rule="evenodd" clip-rule="evenodd" d="M7.43699 22.9987C7.77812 22.655 8.33119 22.655 8.67231 22.9987L11.04 25.3845C11.0968 25.4418 11.189 25.4418 11.2459 25.3845L13.5952 23.0173L13.6136 22.9987L13.6138 22.999C13.9562 22.6736 14.4955 22.6797 14.8305 23.0173C15.1655 23.3548 15.1715 23.8982 14.8486 24.2432L14.8489 24.2435L14.8305 24.262L12.3783 26.733L11.5547 27.5628C11.3273 27.792 10.9586 27.792 10.7312 27.5628L9.90762 26.733L7.43699 24.2435C7.09587 23.8997 7.09587 23.3424 7.43699 22.9987Z" fill="#FF7201"/>
<path fill-rule="evenodd" clip-rule="evenodd" d="M16.9932 14.6165C16.9932 15.1026 17.3842 15.4967 17.8667 15.4967H19.9672C20.0476 15.4967 20.1128 15.5624 20.1128 15.6434L20.1124 20.7814V20.8077H20.1128C20.1266 21.2816 20.5122 21.6616 20.9859 21.6616C21.4596 21.6616 21.8453 21.2816 21.859 20.8077H21.8594V20.7814L21.8598 15.4967V14.3231C21.8598 13.999 21.5991 13.7363 21.2775 13.7363H20.1128H17.8667C17.3842 13.7363 16.9932 14.1304 16.9932 14.6165Z" fill="#FF7201"/>
<path d="M23.7446 13.7377C24.227 13.7377 24.6181 14.1318 24.6181 14.6179C24.6181 15.104 24.227 15.498 23.7446 15.498C23.2622 15.498 22.8711 15.104 22.8711 14.6179C22.8711 14.1318 23.2622 13.7377 23.7446 13.7377Z" fill="#FF7201"/>
<path fill-rule="evenodd" clip-rule="evenodd" d="M15.0586 14.61L15.0586 14.6106L15.0586 14.6113L15.0585 19.0198V19.0461H15.0581C15.0444 19.52 14.6587 19.9 14.185 19.9C13.7113 19.9 13.3257 19.52 13.3119 19.0461H13.3115V19.0201L13.3115 19.0198L13.3115 19.0196L13.3116 14.6106L13.3116 14.584H13.312C13.326 14.1102 13.7115 13.7305 14.1851 13.7305C14.6587 13.7305 15.0442 14.1102 15.0582 14.584H15.0586V14.61Z" fill="white"/>
<path fill-rule="evenodd" clip-rule="evenodd" d="M13.3115 20.78C13.3115 20.2939 12.9204 19.8998 12.438 19.8998H9.08961C9.00921 19.8998 8.94403 19.8341 8.94403 19.7531V14.6449V14.6187H8.94365C8.92989 14.1447 8.54424 13.7648 8.07053 13.7648C7.59681 13.7648 7.21117 14.1447 7.19741 14.6187H7.19703V14.6449V19.8998V21.0734C7.19703 21.3974 7.45775 21.6602 7.77936 21.6602H8.94403H12.438C12.9204 21.6602 13.3115 21.2661 13.3115 20.78Z" fill="white"/>
</g>
<defs>
<linearGradient id="paint0_linear_4004_51583" x1="16.0002" y1="1.04102" x2="16.0002" y2="13.4719" gradientUnits="userSpaceOnUse">
<stop stop-color="#FF7201"/>
<stop offset="1" stop-color="#994401"/>
</linearGradient>
<linearGradient id="paint1_linear_4004_51583" x1="16.0001" y1="11.4141" x2="16.0001" y2="33.0404" gradientUnits="userSpaceOnUse">
<stop stop-color="#FF7201"/>
<stop offset="1" stop-color="#994401"/>
</linearGradient>
<clipPath id="clip0_4004_51583">
<rect width="17.6046" height="16.9762" fill="white" transform="translate(7.19824 13.7344)"/>
</clipPath>
</defs>
</svg>
