<svg width="32" height="32" viewBox="0 0 32 32" fill="none" xmlns="http://www.w3.org/2000/svg">
<rect width="32" height="32" rx="16" fill="#F5F5F5"/>
<g clip-path="url(#clip0_7332_27324)">
<path d="M15.7978 28.2597C22.4247 28.2597 27.7968 22.8876 27.7968 16.2607C27.7968 9.63386 22.4247 4.26172 15.7978 4.26172C9.17097 4.26172 3.79883 9.63386 3.79883 16.2607C3.79883 22.8876 9.17097 28.2597 15.7978 28.2597Z" fill="url(#paint0_linear_7332_27324)"/>
<path d="M16.8564 28.2597C23.4833 28.2597 28.8554 22.8876 28.8554 16.2607C28.8554 9.63386 23.4833 4.26172 16.8564 4.26172C10.2296 4.26172 4.85742 9.63386 4.85742 16.2607C4.85742 22.8876 10.2296 28.2597 16.8564 28.2597Z" fill="#FEC63A"/>
<path d="M27.6579 18.876C29.1023 12.9104 25.4371 6.90349 19.4715 5.45916C13.5059 4.01483 7.49897 7.68003 6.05464 13.6456C4.61031 19.6112 8.27552 25.6181 14.2411 27.0625C20.2067 28.5068 26.2136 24.8416 27.6579 18.876Z" fill="#FEDB3B" stroke="#FCB116" stroke-width="0.198495" stroke-miterlimit="10"/>
<path d="M24.7011 18.0862C25.7086 13.7532 23.0128 9.42379 18.6797 8.41626C14.3467 7.40874 10.0174 10.1046 9.00984 14.4376C8.00231 18.7706 10.6981 23.1 15.0312 24.1075C19.3642 25.115 23.6935 22.4192 24.7011 18.0862Z" stroke="#FCB116" stroke-width="0.198495" stroke-miterlimit="10"/>
<path d="M25.7728 18.4128C26.9603 13.4893 23.9316 8.53531 19.0081 7.34782C14.0845 6.16034 9.13059 9.18899 7.94311 14.1125C6.75562 19.036 9.78427 23.99 14.7078 25.1775C19.6313 26.365 24.5853 23.3363 25.7728 18.4128Z" stroke="#FCB116" stroke-width="0.198495" stroke-miterlimit="10"/>
<path d="M16.8573 26.486C22.5041 26.486 27.0817 21.9084 27.0817 16.2616C27.0817 10.6148 22.5041 6.03711 16.8573 6.03711C11.2105 6.03711 6.63281 10.6148 6.63281 16.2616C6.63281 21.9084 11.2105 26.486 16.8573 26.486Z" stroke="#FCB116" stroke-width="0.198495" stroke-miterlimit="10"/>
<g style="mix-blend-mode:multiply" opacity="0.3">
<path d="M28.8038 15.1126C25.2587 17.8478 17.0589 23.8404 15.6158 21.909C14.5142 20.4362 10.9175 22.574 8.18419 24.547C8.86702 25.2636 9.63916 25.8948 10.4808 26.4228C11.1457 24.3823 12.4558 22.9154 15.0144 24.1024C18.8434 25.8829 24.6791 22.4926 28.2977 19.9022C28.6629 18.753 28.8614 17.5302 28.8614 16.2599C28.8614 15.8708 28.8415 15.4877 28.8058 15.1106L28.8038 15.1126ZM16.9497 15.2495C19.0458 17.028 24.4786 13.6497 27.7736 11.2796C27.1881 9.99934 26.3842 8.83814 25.4096 7.84766C22.323 10.3864 17.6961 13.4293 15.7985 10.7496C13.7123 7.80002 9.23423 10.6742 5.11943 13.7668C4.94873 14.5727 4.85742 15.4063 4.85742 16.2638C4.85742 17.7645 5.13531 19.1996 5.63751 20.5235C9.24813 17.5679 14.9052 13.5167 16.9477 15.2495H16.9497Z" fill="#FEC63A"/>
</g>
<path opacity="0.5" d="M28.8021 15.1126C25.2569 17.8478 17.0571 23.8404 15.6141 21.909C14.5124 20.4362 10.9157 22.574 8.18242 24.547C8.39878 24.7733 8.62506 24.9857 8.8573 25.1941C11.4794 23.3759 14.6017 21.6768 15.6141 23.0325C17.0571 24.9639 25.2569 18.9713 28.8021 16.236C28.8199 16.4286 28.8338 16.6231 28.8437 16.8196C28.8517 16.635 28.8576 16.4484 28.8576 16.2599C28.8576 15.8708 28.8378 15.4877 28.8021 15.1106V15.1126ZM15.7987 11.8751C17.6943 14.5548 26.3844 8.84013 25.4098 7.84766C22.3232 10.3864 17.6963 13.4293 15.7987 10.7496C13.7125 7.80002 9.23444 10.6742 5.11965 13.7668C4.94894 14.5727 13.7125 8.92548 15.7987 11.8751Z" fill="url(#paint1_linear_7332_27324)"/>
<g clip-path="url(#clip1_7332_27324)">
<path fill-rule="evenodd" clip-rule="evenodd" d="M18.7344 16.9428C18.7344 17.2327 18.9725 17.4677 19.2662 17.4677H21.3049C21.3539 17.4677 21.3936 17.5069 21.3936 17.5552V19.5515V19.5672H21.3938C21.4022 19.8498 21.637 20.0764 21.9254 20.0764C22.2138 20.0764 22.4486 19.8498 22.457 19.5672H22.4572V19.5515V17.4677V16.7679C22.4572 16.5746 22.2985 16.418 22.1027 16.418H21.3936H19.2662C18.9725 16.418 18.7344 16.653 18.7344 16.9428Z" fill="#0D0D0D"/>
<path fill-rule="evenodd" clip-rule="evenodd" d="M21.3926 20.6001C21.3926 20.3103 21.1545 20.0753 20.8607 20.0753H18.822C18.7731 20.0753 18.7334 20.0361 18.7334 19.9878V17.9914V17.9758H18.7332C18.7248 17.6932 18.49 17.4666 18.2015 17.4666C17.9131 17.4666 17.6783 17.6932 17.6699 17.9758H17.6697V17.9914V20.0753V20.7751C17.6697 20.9683 17.8284 21.125 18.0243 21.125H18.7334H20.8607C21.1545 21.125 21.3926 20.89 21.3926 20.6001Z" fill="#0D0D0D"/>
<path fill-rule="evenodd" clip-rule="evenodd" d="M11.8995 20.9668C12.1072 21.1718 12.4439 21.1718 12.6516 20.9668L14.0932 19.5441C14.1278 19.51 14.184 19.51 14.2186 19.5441L15.649 20.9558L15.6602 20.9668L15.6603 20.9667C15.8688 21.1607 16.1972 21.1571 16.4011 20.9558C16.6051 20.7545 16.6087 20.4304 16.4121 20.2247L16.4123 20.2246L16.4011 20.2135L14.908 18.74L14.4066 18.2452C14.2682 18.1085 14.0437 18.1085 13.9052 18.2452L13.4038 18.74L11.8995 20.2246C11.6918 20.4295 11.6918 20.7619 11.8995 20.9668Z" fill="#FF7201"/>
<path fill-rule="evenodd" clip-rule="evenodd" d="M11.8936 16.539C12.1013 16.334 12.4381 16.334 12.6458 16.539L14.0874 17.9617C14.122 17.9959 14.1781 17.9959 14.2127 17.9617L15.6431 16.5501L15.6543 16.539L15.6545 16.5392C15.8629 16.3452 16.1913 16.3488 16.3952 16.5501C16.5992 16.7514 16.6029 17.0754 16.4063 17.2811L16.4064 17.2813L16.3952 17.2923L14.9022 18.7658L14.4008 19.2607C14.2623 19.3973 14.0378 19.3973 13.8993 19.2607L13.3979 18.7658L11.8936 17.2813C11.6859 17.0763 11.6859 16.744 11.8936 16.539Z" fill="#FF7201"/>
<path fill-rule="evenodd" clip-rule="evenodd" d="M17.7109 11.5405C17.7109 11.8304 17.949 12.0654 18.2428 12.0654H19.5217C19.5707 12.0654 19.6104 12.1045 19.6104 12.1528L19.6101 15.2168V15.2324H19.6104C19.6187 15.515 19.8535 15.7416 20.142 15.7416C20.4304 15.7416 20.6652 15.515 20.6736 15.2324H20.6738V15.2168L20.674 12.0654V11.3655C20.674 11.1723 20.5153 11.0156 20.3195 11.0156H19.6104H18.2428C17.949 11.0156 17.7109 11.2506 17.7109 11.5405Z" fill="#FF7201"/>
<path d="M21.8209 11.0167C22.1146 11.0167 22.3527 11.2517 22.3527 11.5415C22.3527 11.8314 22.1146 12.0664 21.8209 12.0664C21.5272 12.0664 21.2891 11.8314 21.2891 11.5415C21.2891 11.2517 21.5272 11.0167 21.8209 11.0167Z" fill="#FF7201"/>
<path fill-rule="evenodd" clip-rule="evenodd" d="M16.5364 11.5381L16.5364 11.5385L16.5364 11.5389L16.5363 14.1678V14.1835H16.5361C16.5277 14.4661 16.2929 14.6927 16.0045 14.6927C15.7161 14.6927 15.4813 14.4661 15.4729 14.1835H15.4727V14.168L15.4727 14.1678L15.4727 14.1677L15.4727 11.5385L15.4727 11.5226H15.473C15.4815 11.2401 15.7162 11.0137 16.0046 11.0137C16.2929 11.0137 16.5276 11.2401 16.5361 11.5226H16.5364V11.5381Z" fill="#0D0D0D"/>
<path fill-rule="evenodd" clip-rule="evenodd" d="M15.4727 15.2173C15.4727 14.9274 15.2345 14.6925 14.9408 14.6925H12.9021C12.8531 14.6925 12.8135 14.6533 12.8135 14.605V11.5589V11.5433H12.8132C12.8049 11.2606 12.5701 11.034 12.2816 11.034C11.9932 11.034 11.7584 11.2606 11.75 11.5433H11.7498V11.5589V14.6925V15.3923C11.7498 15.5855 11.9085 15.7422 12.1043 15.7422H12.8135H14.9408C15.2345 15.7422 15.4727 15.5072 15.4727 15.2173Z" fill="#0D0D0D"/>
</g>
</g>
<defs>
<linearGradient id="paint0_linear_7332_27324" x1="15.7978" y1="28.2617" x2="15.7978" y2="4.26172" gradientUnits="userSpaceOnUse">
<stop stop-color="#DA9A13"/>
<stop offset="0.49" stop-color="#FCB116"/>
<stop offset="1" stop-color="#DA9A13"/>
</linearGradient>
<linearGradient id="paint1_linear_7332_27324" x1="5.11766" y1="16.5219" x2="28.8576" y2="16.5219" gradientUnits="userSpaceOnUse">
<stop stop-color="white" stop-opacity="0.5"/>
<stop offset="0.5" stop-color="white"/>
<stop offset="1" stop-color="white" stop-opacity="0.7"/>
</linearGradient>
<clipPath id="clip0_7332_27324">
<rect width="25.058" height="24" fill="white" transform="translate(3.80469 4.26562)"/>
</clipPath>
<clipPath id="clip1_7332_27324">
<rect width="10.7187" height="10.1232" fill="white" transform="translate(11.7461 11.0137)"/>
</clipPath>
</defs>
</svg>
