<svg width="28" height="36" viewBox="0 0 28 36" fill="none" xmlns="http://www.w3.org/2000/svg">
<g clip-path="url(#clip0_4613_2682)">
<path d="M19.1363 27.0027C26.0545 24.164 29.3615 16.2544 26.5227 9.33624C23.684 2.41808 15.7744 -0.888935 8.85628 1.94982C1.93811 4.78858 -1.3689 12.6981 1.46986 19.6163C4.30861 26.5344 12.2182 29.8415 19.1363 27.0027Z" fill="url(#paint0_linear_4613_2682)"/>
<path d="M8.94979 34.9698L6.20979 32.5198C6.05979 32.3798 5.85979 32.2998 5.64979 32.2798L2.25979 31.9998C2.00979 31.9798 1.85979 31.7198 1.95979 31.4898L6.80979 20.5098L14.3798 23.8498L9.52979 34.8398C9.42979 35.0698 9.13979 35.1298 8.94979 34.9698Z" fill="url(#paint1_linear_4613_2682)"/>
<path d="M19.0499 34.9698L21.7899 32.5198C21.9399 32.3798 22.1399 32.2998 22.3499 32.2798L25.7399 31.9998C25.9899 31.9798 26.1399 31.7198 26.0399 31.4898L21.1899 20.5098L13.6199 23.8498L18.4699 34.8398C18.5699 35.0698 18.8599 35.1298 19.0499 34.9698Z" fill="url(#paint2_linear_4613_2682)"/>
<path d="M23.0846 23.5648C28.1029 18.5466 28.1029 10.4104 23.0846 5.39219C18.0664 0.373958 9.93024 0.373956 4.91201 5.39219C-0.106231 10.4104 -0.106231 18.5466 4.91201 23.5648C9.93024 28.5831 18.0664 28.5831 23.0846 23.5648Z" fill="url(#paint3_linear_4613_2682)"/>
<path d="M20.6238 21.1041C24.2831 17.4449 24.2831 11.5121 20.6238 7.85293C16.9646 4.19371 11.0319 4.19371 7.37266 7.85293C3.71345 11.5121 3.71345 17.4449 7.37266 21.1041C11.0319 24.7633 16.9646 24.7633 20.6238 21.1041Z" fill="url(#paint4_linear_4613_2682)"/>
<g style="mix-blend-mode:overlay">
<path d="M5.0999 14.9494C5.0999 9.77938 9.2899 5.57937 14.4699 5.57937C16.9399 5.57937 19.1699 6.53937 20.8499 8.09937C19.1399 6.26937 16.7099 5.10938 14.0099 5.10938C8.8399 5.10938 4.6499 9.29938 4.6499 14.4794C4.6499 17.1794 5.7999 19.6094 7.6399 21.3194C6.0799 19.6494 5.1199 17.4094 5.1199 14.9394L5.0999 14.9494Z" fill="white"/>
</g>
<g style="mix-blend-mode:multiply" opacity="0.54">
<path d="M13.9999 5.10961C13.9199 5.10961 13.8399 5.10961 13.7599 5.11961C18.5599 5.24961 22.4199 9.16961 22.4199 13.9996C22.4199 18.8296 18.4399 22.8896 13.5299 22.8896C8.61989 22.8896 4.76989 19.0296 4.64989 14.2296C4.64989 14.3096 4.63989 14.3896 4.63989 14.4696C4.63989 19.6396 8.82989 23.8296 13.9999 23.8296C19.1699 23.8296 23.3699 19.6396 23.3699 14.4696C23.3699 9.29961 19.1799 5.09961 13.9999 5.09961V5.10961Z" fill="#AF3004"/>
</g>
<path d="M14.7578 10.5492V18.9492H12.8138V12.1092H11.1338V10.5492H14.7578Z" fill="#AF3004"/>
</g>
<defs>
<linearGradient id="paint0_linear_4613_2682" x1="0.451646" y1="14.4744" x2="27.5316" y2="14.4744" gradientUnits="userSpaceOnUse">
<stop stop-color="#F7AA00"/>
<stop offset="0.27" stop-color="#ED9700"/>
<stop offset="0.65" stop-color="#F9DB00"/>
<stop offset="1" stop-color="#F7AA00"/>
</linearGradient>
<linearGradient id="paint1_linear_4613_2682" x1="6.34979" y1="31.4098" x2="8.60979" y2="26.7798" gradientUnits="userSpaceOnUse">
<stop stop-color="#D60909"/>
<stop offset="1" stop-color="#A00505"/>
</linearGradient>
<linearGradient id="paint2_linear_4613_2682" x1="21.3199" y1="31.3398" x2="19.2599" y2="26.2798" gradientUnits="userSpaceOnUse">
<stop stop-color="#D60909"/>
<stop offset="1" stop-color="#A00505"/>
</linearGradient>
<linearGradient id="paint3_linear_4613_2682" x1="1.14723" y1="14.4774" x2="26.8472" y2="14.4774" gradientUnits="userSpaceOnUse">
<stop stop-color="#F7AA00"/>
<stop offset="0.35" stop-color="#F9DB00"/>
<stop offset="0.73" stop-color="#ED9700"/>
<stop offset="1" stop-color="#F7AA00"/>
</linearGradient>
<linearGradient id="paint4_linear_4613_2682" x1="19.4372" y1="19.9174" x2="7.98716" y2="8.46742" gradientUnits="userSpaceOnUse">
<stop stop-color="#F7AA00"/>
<stop offset="0.35" stop-color="#F9DB00"/>
<stop offset="0.73" stop-color="#ED9700"/>
<stop offset="1" stop-color="#F7AA00"/>
</linearGradient>
<clipPath id="clip0_4613_2682">
<rect width="27.08" height="34.12" fill="white" transform="translate(0.459961 0.939453)"/>
</clipPath>
</defs>
</svg>
