<svg width="24" height="24" viewBox="0 0 24 24" fill="none" xmlns="http://www.w3.org/2000/svg">
<path d="M21 20.9978H20.894C19.1813 20.9978 17.4684 20.9985 15.7553 20.9998C15.6718 20.9998 15.6217 20.9766 15.5747 20.9094C14.5927 19.5066 13.6095 18.1048 12.625 16.7038C12.0062 15.822 11.3869 14.9405 10.7673 14.0592C10.7553 14.0439 10.7425 14.0292 10.729 14.0152L10.1987 14.6171C8.81654 16.1882 7.43449 17.7593 6.0525 19.3305C5.58612 19.8608 5.12075 20.3918 4.6564 20.9233C4.63658 20.9488 4.61063 20.9691 4.58085 20.9824C4.55107 20.9957 4.51839 21.0016 4.48571 20.9996C3.99919 20.996 3.51267 20.9978 3 20.9978L10.0266 13.0072L3.00405 3.00931C3.0446 3.00634 3.07237 3.00238 3.10034 3.00238C4.82343 3.00238 6.54652 3.00159 8.26961 3C8.34746 3 8.38313 3.03409 8.42064 3.0878C8.9723 3.87461 9.52436 4.66077 10.0768 5.44626C10.9846 6.73846 11.8924 8.03072 12.8003 9.32305C12.8666 9.41759 12.9337 9.51193 13.0069 9.61558C13.1456 9.45881 13.2779 9.31017 13.4093 9.16093L17.7788 4.19172C18.1089 3.81634 18.4377 3.44018 18.7703 3.06699C18.8018 3.03152 18.8458 3.009 18.8936 3.00396C19.3766 2.9996 19.8597 3.00119 20.343 3.00139C20.3586 3.00139 20.3744 3.00377 20.4087 3.00654L13.7119 10.6218L21 20.9978ZM5.16319 4.1719C5.18346 4.20202 5.19278 4.21808 5.20373 4.23334C6.09325 5.47784 6.98284 6.72207 7.87249 7.96605C9.45044 10.1739 11.0282 12.3817 12.6057 14.5894C13.849 16.3291 15.0917 18.069 16.3337 19.8093C16.3742 19.8662 16.416 19.883 16.4825 19.883C17.2258 19.8813 17.9691 19.8813 18.7123 19.883H18.822C18.7922 19.8388 18.7762 19.814 18.7592 19.7899C17.6973 18.3049 16.6356 16.8198 15.5739 15.3346C14.503 13.835 13.4324 12.3355 12.3621 10.836C11.2928 9.3397 10.2235 7.8437 9.15406 6.34802C8.65309 5.64775 8.15163 4.94748 7.64971 4.24721C7.62619 4.21451 7.58078 4.17527 7.54531 4.17507C6.75816 4.17091 5.97101 4.1719 5.16319 4.1719Z" fill="#0D0D0D"/>
</svg>
