<svg width="32" height="32" viewBox="0 0 32 32" fill="none" xmlns="http://www.w3.org/2000/svg">
<path d="M17.9211 3.53375C16.7392 2.82208 15.2608 2.82208 14.0789 3.53375L13.2243 4.04833C11.1508 5.29689 8.82302 6.06305 6.4133 6.29008L5.8749 6.3408C4.81213 6.44093 4 7.33317 4 8.40065V11.1216C4 15.7207 5.86717 20.1227 9.1738 23.3193L14.562 28.5281C15.3639 29.3034 16.6361 29.3034 17.438 28.5281L22.8262 23.3193C26.1328 20.1227 28 15.7207 28 11.1216V8.40065C28 7.33317 27.1879 6.44093 26.1251 6.34081L25.5867 6.29008C23.177 6.06305 20.8492 5.29689 18.7757 4.04833L17.9211 3.53375Z" fill="url(#paint0_linear_6725_66803)"/>
<path d="M16.4165 12.144H13.8565V10.304H18.3845V22H16.4165V12.144Z" fill="#0A0C22"/>
<defs>
<linearGradient id="paint0_linear_6725_66803" x1="16" y1="3" x2="16" y2="29.1096" gradientUnits="userSpaceOnUse">
<stop stop-color="#FF7201"/>
<stop offset="1" stop-color="#FAFF00"/>
</linearGradient>
</defs>
</svg>
