<svg xmlns="http://www.w3.org/2000/svg" width="24" height="24" viewBox="0 0 24 24" fill="white">
  <mask id="mask0_3378_42475" style="mask-type:luminance" maskUnits="userSpaceOnUse" x="0" y="0" width="23" height="24">
    <path d="M0.0424805 0.898438H22.8996V23.7556H0.0424805V0.898438Z" fill="inherit"/>
  </mask>
  <g mask="url(#mask0_3378_42475)">
    <path fill-rule="evenodd" clip-rule="evenodd" d="M15.6151 18.6168C16.2025 19.3596 16.9065 20.2019 16.9065 20.2019C18.0717 20.2325 19.2268 19.978 20.2712 19.4605C21.3157 18.9431 22.218 18.1783 22.8996 17.2328C22.837 13.2611 21.873 9.3556 20.0802 5.81105C18.5032 4.57204 16.5804 3.85323 14.5773 3.75391L14.3031 4.06819C16.0859 4.54266 17.7477 5.39031 19.1785 6.55505C17.354 5.54732 15.3498 4.90669 13.2791 4.66933C11.9638 4.5239 10.6359 4.53656 9.32362 4.70705C9.21373 4.71104 9.10438 4.72442 8.99677 4.74705C7.45883 4.9238 5.95845 5.34228 4.55105 5.98705C3.82762 6.31962 3.39677 6.55505 3.39677 6.55505C4.90802 5.32984 6.67111 4.45336 8.56019 3.98819L8.36362 3.75391C6.36108 3.85306 4.4387 4.57146 2.86191 5.80991C1.06913 9.35445 0.105063 13.26 0.0424805 17.2316C0.717783 18.179 1.61556 18.9459 2.65682 19.4648C3.69808 19.9837 4.85092 20.2388 6.01391 20.2076C6.01391 20.2076 6.73162 19.3196 7.31905 18.5756C5.94269 18.2285 4.7308 17.4116 3.89277 16.2659C4.59105 16.7333 5.33962 17.1208 6.12477 17.4202C7.05505 17.7882 8.0162 18.0705 8.99677 18.2625C10.6711 18.5848 12.3911 18.5905 14.0688 18.2819C15.0436 18.1116 15.9968 17.8293 16.9076 17.4408C17.6993 17.1418 18.4546 16.7542 19.1591 16.2853C18.2899 17.4557 17.035 18.2811 15.6162 18.6156L15.6151 18.6168ZM6.38305 11.7573C6.75206 11.3549 7.25851 11.1053 7.80248 11.0579C8.07695 11.0677 8.34673 11.1319 8.59618 11.2468C8.84563 11.3617 9.06978 11.525 9.25563 11.7273C9.44147 11.9295 9.5853 12.1666 9.67878 12.4248C9.77227 12.6831 9.81354 12.9573 9.8002 13.2316C9.812 13.5056 9.76966 13.7792 9.67562 14.0368C9.58157 14.2943 9.43765 14.5308 9.2521 14.7327C9.06654 14.9346 8.843 15.098 8.59426 15.2134C8.34552 15.3288 8.07646 15.394 7.80248 15.4053C7.39661 15.3701 7.00871 15.2219 6.6827 14.9776C6.3567 14.7333 6.10562 14.4026 5.95789 14.0229C5.81016 13.6432 5.77169 13.2298 5.84683 12.8294C5.92197 12.429 6.10772 12.0576 6.38305 11.7573ZM13.6905 11.3333C14.0733 11.1162 14.5122 11.0213 14.9499 11.059C15.2237 11.0705 15.4925 11.1358 15.7411 11.2512C15.9896 11.3666 16.213 11.5299 16.3984 11.7316C16.5838 11.9334 16.7276 12.1697 16.8217 12.4271C16.9157 12.6845 16.9581 12.9578 16.9465 13.2316C16.9469 13.6158 16.846 13.9933 16.6538 14.3259C16.4617 14.6586 16.1852 14.9347 15.8522 15.1263C15.5192 15.3178 15.1415 15.4181 14.7573 15.417C14.3732 15.4159 13.9961 15.3134 13.6642 15.12C13.3323 14.9265 13.0574 14.6488 12.8671 14.315C12.6769 13.9813 12.5782 13.6032 12.5808 13.219C12.5835 12.8349 12.6875 12.4582 12.8823 12.1271C13.0772 11.796 13.3559 11.5222 13.6905 11.3333Z" fill="inherit"/>
  </g>
</svg>