<svg width="48" height="48" viewBox="0 0 48 48" fill="none" xmlns="http://www.w3.org/2000/svg">
<rect width="48" height="48" rx="24" fill="#0D0D0D"/>
<path d="M23.9993 10.668C22.2484 10.668 20.5146 11.0128 18.8969 11.6829C17.2792 12.353 15.8094 13.3351 14.5713 14.5732C12.0708 17.0737 10.666 20.4651 10.666 24.0013C10.666 29.8946 14.4927 34.8946 19.786 36.668C20.4527 36.7746 20.666 36.3613 20.666 36.0013V33.748C16.9727 34.548 16.186 31.9613 16.186 31.9613C15.5727 30.4146 14.706 30.0013 14.706 30.0013C13.4927 29.1746 14.7993 29.2013 14.7993 29.2013C16.1327 29.2946 16.8393 30.5746 16.8393 30.5746C17.9993 32.6013 19.9593 32.0013 20.7193 31.6813C20.8393 30.8146 21.186 30.228 21.5593 29.8946C18.5993 29.5613 15.4927 28.4146 15.4927 23.3346C15.4927 21.8546 15.9993 20.668 16.866 19.7213C16.7327 19.388 16.266 18.0013 16.9993 16.2013C16.9993 16.2013 18.1193 15.8413 20.666 17.5613C21.7193 17.268 22.866 17.1213 23.9993 17.1213C25.1327 17.1213 26.2794 17.268 27.3327 17.5613C29.8794 15.8413 30.9993 16.2013 30.9993 16.2013C31.7327 18.0013 31.266 19.388 31.1327 19.7213C31.9993 20.668 32.506 21.8546 32.506 23.3346C32.506 28.428 29.386 29.548 26.4127 29.8813C26.8927 30.2946 27.3327 31.108 27.3327 32.348V36.0013C27.3327 36.3613 27.546 36.788 28.226 36.668C33.5194 34.8813 37.3327 29.8946 37.3327 24.0013C37.3327 22.2503 36.9878 20.5165 36.3177 18.8989C35.6477 17.2812 34.6656 15.8113 33.4274 14.5732C32.1893 13.3351 30.7195 12.353 29.1018 11.6829C27.4841 11.0128 25.7503 10.668 23.9993 10.668Z" fill="white"/>
</svg>
