<svg width="24" height="24" viewBox="0 0 24 24" fill="none" xmlns="http://www.w3.org/2000/svg">
<path d="M10.3909 18.3937C10.7816 18.3937 10.9509 18.2114 11.1724 18.003C11.511 17.6774 15.8614 13.4442 15.8614 13.4442L13.1913 12.793L10.7165 14.356L10.3909 18.2635V18.3937Z" fill="#0D0D0D"/>
<path d="M10.6524 14.4083L16.9565 19.0583C17.6729 19.449 18.1939 19.2536 18.3762 18.394L20.9422 6.30673C21.2027 5.25171 20.5384 4.7828 19.8481 5.09541L4.79109 10.9046C3.76211 11.3214 3.77514 11.8945 4.60874 12.142L8.47718 13.3533L17.4254 7.71344C17.8422 7.45294 18.2329 7.59622 17.9203 7.88277L10.6524 14.4083Z" fill="#0D0D0D"/>
</svg>
