<svg width="34" height="34" viewBox="0 0 34 34" fill="none" xmlns="http://www.w3.org/2000/svg">
<g clip-path="url(#clip0_6758_7797)">
<path d="M32.5009 10.9749C32.2576 10.1899 31.4794 9.65022 30.4093 9.40491C30.3606 9.38038 23.0159 8.32555 23.0159 8.32555C23.0159 8.32555 19.8299 1.8003 19.7326 1.60405C19.1976 0.647338 18.4436 0.0585938 17.641 0.0585938C16.8385 0.0585938 16.0845 0.647338 15.5495 1.62858C15.4522 1.82483 12.2662 8.35008 12.2662 8.35008C12.2662 8.35008 4.92145 9.40491 4.87281 9.42944C3.80271 9.65022 3.00013 10.1899 2.75693 10.9504C2.51372 11.7108 2.82989 12.5694 3.53518 13.3789L8.91 18.6776C8.91 18.6776 7.69398 25.8652 7.66966 26.086C7.57238 27.1899 7.81558 28.0976 8.47224 28.5882C9.12889 29.0543 10.3936 29.0052 11.3907 28.5391L17.9815 25.0802C17.9815 25.0802 23.9157 28.441 24.0617 28.49C24.1103 28.5146 24.1589 28.5391 24.2076 28.5636C25.229 29.0052 26.1532 29.0543 26.8099 28.5636C27.4665 28.073 27.7097 27.1654 27.5881 26.0615C27.5881 26.0369 27.5881 26.0124 27.5881 25.9634C27.5638 25.8407 26.3478 18.6776 26.3478 18.6776C26.3478 18.6776 31.674 13.4525 31.674 13.428C32.4036 12.6185 32.7197 11.7599 32.5009 10.9749Z" fill="url(#paint0_linear_6758_7797)"/>
<path d="M31.9423 10.9447C31.6991 10.1597 30.9208 9.62007 29.8507 9.37476C29.8021 9.35023 22.4573 8.27086 22.4573 8.27086C22.4573 8.27086 19.2713 1.74561 19.1497 1.54936C18.6146 0.592651 17.885 0.00390625 17.0581 0.00390625C16.2556 0.00390625 15.5016 0.592651 14.9666 1.57389C14.8693 1.74561 11.6833 8.29539 11.6833 8.29539C11.6833 8.29539 4.36286 9.37476 4.31422 9.37476C3.24412 9.59554 2.44154 10.1352 2.19834 10.8957C1.95513 11.6561 2.2713 12.5147 2.97659 13.3243L8.35141 18.623C8.35141 18.623 7.13539 25.8105 7.11107 26.0313C7.01379 27.1352 7.25699 28.0429 7.91364 28.5335C8.5703 28.9996 9.51879 28.9505 10.5159 28.4844L17.0581 25.0255C17.0581 25.0255 23.3571 28.3863 23.5031 28.4354C23.5517 28.4599 23.6003 28.4844 23.649 28.509C24.6704 28.9505 25.5946 28.9996 26.2513 28.509C26.9079 28.0183 27.1511 27.1107 27.0295 26.0068C27.0295 25.9823 27.0295 25.9577 27.0052 25.9087C27.0052 25.7615 25.7892 18.623 25.7892 18.623C25.7892 18.623 31.1154 13.3978 31.1154 13.3733C31.845 12.5638 32.1611 11.7052 31.9423 10.9447Z" fill="url(#paint1_linear_6758_7797)"/>
<path d="M24.7656 6.80198L28.9487 2.16561L26.9788 0.816406L24.7656 6.80198Z" fill="url(#paint2_linear_6758_7797)"/>
<path d="M10.5137 6.94229L7.96 1.22656L5.94141 2.52671L10.5137 6.94229Z" fill="url(#paint3_linear_6758_7797)"/>
<path d="M6.20953 19.4375L0.0078125 19.83L0.494222 22.2095L6.20953 19.4375Z" fill="url(#paint4_linear_6758_7797)"/>
<path d="M17.2506 27.6523L15.6211 33.7115L17.9802 34.0059L17.2506 27.6523Z" fill="url(#paint5_linear_6758_7797)"/>
<path d="M27.6602 18.7734L33.3268 21.3983L34.0078 19.0923L27.6602 18.7734Z" fill="url(#paint6_linear_6758_7797)"/>
</g>
<defs>
<linearGradient id="paint0_linear_6758_7797" x1="17.6256" y1="3.30066" x2="17.6256" y2="26.1671" gradientUnits="userSpaceOnUse">
<stop stop-color="#F9C201"/>
<stop offset="1" stop-color="#EA8D01"/>
</linearGradient>
<linearGradient id="paint1_linear_6758_7797" x1="17.067" y1="3.24597" x2="17.067" y2="26.1124" gradientUnits="userSpaceOnUse">
<stop stop-color="#F9C201"/>
<stop offset="0.49" stop-color="#EA8D01"/>
<stop offset="0.98" stop-color="#F8BE02"/>
</linearGradient>
<linearGradient id="paint2_linear_6758_7797" x1="26.8576" y1="1.48891" x2="26.8576" y2="6.23214" gradientUnits="userSpaceOnUse">
<stop stop-color="#F9C201"/>
<stop offset="0.49" stop-color="#EA8D01"/>
<stop offset="0.98" stop-color="#F8BE02"/>
</linearGradient>
<linearGradient id="paint3_linear_6758_7797" x1="8.22802" y1="1.86875" x2="8.22802" y2="6.39814" gradientUnits="userSpaceOnUse">
<stop stop-color="#F9C201"/>
<stop offset="0.49" stop-color="#EA8D01"/>
<stop offset="0.98" stop-color="#F8BE02"/>
</linearGradient>
<linearGradient id="paint4_linear_6758_7797" x1="3.10933" y1="19.7489" x2="3.10933" y2="21.9456" gradientUnits="userSpaceOnUse">
<stop stop-color="#F9C201"/>
<stop offset="0.49" stop-color="#EA8D01"/>
<stop offset="0.98" stop-color="#F8BE02"/>
</linearGradient>
<linearGradient id="paint5_linear_6758_7797" x1="16.8009" y1="28.3662" x2="16.8009" y2="33.401" gradientUnits="userSpaceOnUse">
<stop stop-color="#F9C201"/>
<stop offset="0.49" stop-color="#EA8D01"/>
<stop offset="0.98" stop-color="#F8BE02"/>
</linearGradient>
<linearGradient id="paint6_linear_6758_7797" x1="30.8347" y1="19.0683" x2="30.8347" y2="21.1484" gradientUnits="userSpaceOnUse">
<stop stop-color="#F9C201"/>
<stop offset="0.49" stop-color="#EA8D01"/>
<stop offset="0.98" stop-color="#F8BE02"/>
</linearGradient>
<clipPath id="clip0_6758_7797">
<rect width="34" height="34" fill="white"/>
</clipPath>
</defs>
</svg>
