<svg width="28" height="36" viewBox="0 0 28 36" fill="none" xmlns="http://www.w3.org/2000/svg">
<g clip-path="url(#clip0_4613_2886)">
<path d="M27.3633 16.6431C28.5563 9.26097 23.539 2.30942 16.1568 1.11642C8.77464 -0.0765859 1.8231 4.94072 0.630096 12.3229C-0.562908 19.705 4.45439 26.6566 11.8366 27.8496C19.2187 29.0426 26.1703 24.0253 27.3633 16.6431Z" fill="url(#paint0_linear_4613_2886)"/>
<path d="M8.95003 34.9695L6.21003 32.5295C6.06003 32.3895 5.86003 32.3095 5.65003 32.2895L2.26003 32.0095C2.01003 31.9895 1.86003 31.7295 1.96003 31.4995L6.81003 20.5195L14.38 23.8595L9.53003 34.8495C9.43003 35.0795 9.14003 35.1395 8.95003 34.9795V34.9695Z" fill="url(#paint1_linear_4613_2886)"/>
<path d="M19.0501 34.9695L21.7901 32.5295C21.9401 32.3895 22.1401 32.3095 22.3501 32.2895L25.7401 32.0095C25.9901 31.9895 26.1401 31.7295 26.0401 31.4995L21.1901 20.5195L13.6201 23.8595L18.4701 34.8495C18.5701 35.0795 18.8601 35.1395 19.0501 34.9795V34.9695Z" fill="url(#paint2_linear_4613_2886)"/>
<path d="M26.5058 17.4196C28.1275 10.5106 23.8413 3.59496 16.9323 1.97318C10.0232 0.3514 3.10759 4.63759 1.48581 11.5467C-0.135971 18.4557 4.15022 25.3714 11.0593 26.9931C17.9684 28.6149 24.884 24.3287 26.5058 17.4196Z" fill="url(#paint3_linear_4613_2886)"/>
<path d="M23.1207 16.6226C24.305 11.5851 21.1814 6.54121 16.1438 5.35688C11.1062 4.17254 6.0624 7.2962 4.87807 12.3338C3.69373 17.3713 6.81739 22.4152 11.855 23.5995C16.8925 24.7838 21.9364 21.6602 23.1207 16.6226Z" fill="url(#paint4_linear_4613_2886)"/>
<g style="mix-blend-mode:overlay">
<path d="M5.0999 14.9494C5.0999 9.77938 9.2899 5.57937 14.4699 5.57937C16.9399 5.57937 19.1699 6.53937 20.8499 8.09937C19.1399 6.26937 16.7099 5.10938 14.0099 5.10938C8.8399 5.10938 4.6499 9.29937 4.6499 14.4694C4.6499 17.1694 5.7999 19.5994 7.6399 21.3094C6.0799 19.6394 5.1199 17.3994 5.1199 14.9294L5.0999 14.9494Z" fill="white"/>
</g>
<g style="mix-blend-mode:multiply" opacity="0.54">
<path d="M13.9999 5.10938C13.9199 5.10938 13.8399 5.10937 13.7599 5.11937C18.5599 5.24937 22.4199 9.16938 22.4199 13.9994C22.4199 18.8294 18.4399 22.8894 13.5299 22.8894C8.61989 22.8894 4.76989 19.0294 4.64989 14.2294C4.64989 14.3094 4.63989 14.3894 4.63989 14.4694C4.63989 19.6394 8.82989 23.8394 13.9999 23.8394C19.1699 23.8394 23.3699 19.6494 23.3699 14.4694C23.3699 9.28937 19.1799 5.10938 13.9999 5.10938Z" fill="#591706"/>
</g>
<path d="M14.442 13.9692C15.178 14.0892 15.742 14.3652 16.134 14.7972C16.526 15.2212 16.722 15.7492 16.722 16.3812C16.722 16.8692 16.594 17.3212 16.338 17.7372C16.082 18.1452 15.69 18.4732 15.162 18.7212C14.642 18.9692 14.002 19.0932 13.242 19.0932C12.65 19.0932 12.066 19.0172 11.49 18.8652C10.922 18.7052 10.438 18.4812 10.038 18.1932L10.794 16.7052C11.114 16.9452 11.482 17.1332 11.898 17.2692C12.322 17.3972 12.754 17.4612 13.194 17.4612C13.682 17.4612 14.066 17.3692 14.346 17.1852C14.626 16.9932 14.766 16.7252 14.766 16.3812C14.766 15.6932 14.242 15.3492 13.194 15.3492H12.306V14.0652L14.034 12.1092H10.458V10.5492H16.338V11.8092L14.442 13.9692Z" fill="white"/>
</g>
<defs>
<linearGradient id="paint0_linear_4613_2886" x1="2.63399" y1="3.11897" x2="23.414" y2="23.899" gradientUnits="userSpaceOnUse">
<stop stop-color="#BF4500"/>
<stop offset="0.35" stop-color="#E96800"/>
<stop offset="0.73" stop-color="#7F2E00"/>
<stop offset="1" stop-color="#BF4500"/>
</linearGradient>
<linearGradient id="paint1_linear_4613_2886" x1="6.35003" y1="31.4095" x2="8.61003" y2="26.7795" gradientUnits="userSpaceOnUse">
<stop stop-color="#D60909"/>
<stop offset="1" stop-color="#A00505"/>
</linearGradient>
<linearGradient id="paint2_linear_4613_2886" x1="21.3201" y1="31.3395" x2="19.2601" y2="26.2795" gradientUnits="userSpaceOnUse">
<stop stop-color="#D60909"/>
<stop offset="1" stop-color="#A00505"/>
</linearGradient>
<linearGradient id="paint3_linear_4613_2886" x1="25.7823" y1="26.2698" x2="4.51234" y2="4.99983" gradientUnits="userSpaceOnUse">
<stop stop-color="#BF4500"/>
<stop offset="0.35" stop-color="#E96800"/>
<stop offset="0.73" stop-color="#7F2E00"/>
<stop offset="1" stop-color="#BF4500"/>
</linearGradient>
<linearGradient id="paint4_linear_4613_2886" x1="22.1584" y1="22.6399" x2="2.00838" y2="2.48987" gradientUnits="userSpaceOnUse">
<stop stop-color="#BF4500"/>
<stop offset="0.35" stop-color="#E96800"/>
<stop offset="0.73" stop-color="#7F2E00"/>
<stop offset="1" stop-color="#BF4500"/>
</linearGradient>
<clipPath id="clip0_4613_2886">
<rect width="27.08" height="34.12" fill="white" transform="translate(0.459961 0.939453)"/>
</clipPath>
</defs>
</svg>
