<svg xmlns="http://www.w3.org/2000/svg" width="24" height="24" viewBox="0 0 24 24" fill="white">
  <g clip-path="url(#clip0_3378_42484)">
    <path d="M11.9989 23.5369C10.4715 23.5563 8.9554 23.2721 7.53867 22.701C6.12193 22.1298 4.83269 21.283 3.74576 20.2098C2.65882 19.1365 1.7958 17.8581 1.20678 16.4487C0.617761 15.0393 0.314453 13.5269 0.314453 11.9994C0.314453 10.4719 0.617761 8.95953 1.20678 7.55013C1.7958 6.14073 2.65882 4.86231 3.74576 3.78904C4.83269 2.71576 6.12193 1.86899 7.53867 1.29784C8.9554 0.726693 10.4715 0.442539 11.9989 0.461861C15.0335 0.500249 17.9309 1.7327 20.0633 3.89224C22.1957 6.05177 23.3914 8.96449 23.3914 11.9994C23.3914 15.0343 22.1957 17.947 20.0633 20.1066C17.9309 22.2661 15.0335 23.4986 11.9989 23.5369ZM11.9989 1.25755C10.5601 1.25666 9.13591 1.5448 7.81068 2.10486C6.48545 2.66491 5.28623 3.48548 4.28419 4.51786C3.28214 5.55024 2.4977 6.7734 1.9774 8.11474C1.45711 9.45608 1.21157 10.8883 1.25536 12.3263C1.29915 13.7644 1.63137 15.179 2.23231 16.4862C2.83325 17.7934 3.69066 18.9665 4.75365 19.936C5.81665 20.9055 7.06358 21.6516 8.42043 22.13C9.77728 22.6084 11.2164 22.8094 12.6524 22.7209C15.4382 22.5494 18.0479 21.3003 19.9287 19.2381C21.8096 17.176 22.8139 14.4627 22.7291 11.6729C22.6443 8.88314 21.4769 6.23591 19.4743 4.29183C17.4716 2.34776 14.7909 1.25951 11.9998 1.25755H11.9989Z" fill="inherit"/>
    <path d="M11.507 23.5271H11.4904C8.52276 23.3943 5.72068 22.1219 3.66763 19.9749C1.61457 17.8279 0.46875 14.9718 0.46875 12.0011C0.46875 9.03051 1.61457 6.17434 3.66763 4.02734C5.72068 1.88034 8.52276 0.607963 11.4904 0.47514C11.5592 0.471553 11.6276 0.486202 11.6889 0.517601C11.855 0.600678 12.0258 0.692986 12.1966 0.789909L12.2492 0.819448L12.2981 0.84714H12.3037C14.533 2.13886 16.3257 4.06715 17.4517 6.38468C18.2981 8.13583 18.7378 10.0557 18.7378 12.0007C18.7378 13.9457 18.2981 15.8655 17.4517 17.6167C16.3246 19.9336 14.5309 21.8609 12.3009 23.1514L12.2953 23.1551L12.2464 23.1828L12.1929 23.2133C12.023 23.3093 11.8513 23.4007 11.687 23.4847C11.6312 23.5128 11.5695 23.5274 11.507 23.5271ZM11.4203 1.27452C8.67585 1.42303 6.09275 2.61785 4.20254 4.6131C2.31234 6.60836 1.25884 9.25224 1.25884 12.0007C1.25884 14.7491 2.31234 17.393 4.20254 19.3883C6.09275 21.3835 8.67585 22.5783 11.4203 22.7268C11.5458 22.6604 11.6741 22.5948 11.8033 22.5191L11.8513 22.4924L11.9058 22.461C13.9961 21.2493 15.6776 19.4418 16.7353 17.2696C17.8091 15.0575 18.1812 12.5701 17.8017 10.1406C17.4223 7.71117 16.3094 5.45569 14.6123 3.67637C13.8155 2.83747 12.9025 2.11721 11.9012 1.5376L11.8467 1.50622L11.8006 1.48037C11.6713 1.40837 11.5458 1.33914 11.4203 1.27452Z" fill="inherit"/>
    <path d="M12.6765 23.5167C12.6135 23.5165 12.5515 23.5013 12.4956 23.4724C12.2955 23.3701 12.0979 23.263 11.903 23.1512L11.8291 23.1069L11.7977 23.0884C9.58745 21.7823 7.81667 19.847 6.71158 17.5297C5.59208 15.1788 5.21235 12.5435 5.62258 9.97218C6.03281 7.40087 7.21369 5.01457 9.00912 3.12873C9.83053 2.26429 10.7678 1.51781 11.794 0.910581L11.8254 0.892119L11.8993 0.848734C12.0885 0.738888 12.2879 0.630888 12.4928 0.525658C12.5561 0.493427 12.6269 0.478763 12.6977 0.483196C15.6312 0.6614 18.386 1.9523 20.4001 4.09245C22.4142 6.2326 23.5357 9.06067 23.5357 11.9995C23.5357 14.9383 22.4142 17.7664 20.4001 19.9066C18.386 22.0467 15.6312 23.3376 12.6977 23.5158L12.6765 23.5167ZM12.7605 1.28535C12.6027 1.36843 12.4476 1.4515 12.3008 1.53735L12.2343 1.57704L12.202 1.5955C10.1291 2.82219 8.46816 4.63803 7.43065 6.81181C6.38018 9.01746 6.0239 11.49 6.40893 13.9025C6.79395 16.315 7.90214 18.5538 9.58696 20.3229C10.3587 21.1334 11.2393 21.834 12.202 22.4044L12.2343 22.4229L12.3008 22.4626C12.4476 22.5475 12.6017 22.6324 12.7605 22.7146C15.469 22.5197 18.0032 21.3063 19.8531 19.3185C21.7031 17.3306 22.7315 14.7159 22.7315 12.0004C22.7315 9.28495 21.7031 6.67023 19.8531 4.68239C18.0032 2.69456 15.469 1.48113 12.7605 1.28627V1.28535Z" fill="inherit"/>
    <path d="M11.9989 8.18632C10.228 8.19153 8.48009 7.78482 6.89337 6.99832C5.6747 6.39673 4.5719 5.58455 3.63583 4.59924C3.56551 4.52529 3.5263 4.42714 3.5263 4.32509C3.5263 4.22303 3.56551 4.12489 3.63583 4.05093C4.71144 2.91389 6.00836 2.009 7.44677 1.39195C8.88519 0.774897 10.4347 0.458739 11.9998 0.462932C13.5641 0.460372 15.1125 0.777197 16.55 1.394C17.9876 2.0108 19.2841 2.91459 20.3601 4.05001C20.4306 4.12384 20.47 4.22193 20.4701 4.32398C20.4703 4.42603 20.4313 4.52424 20.3611 4.59832C19.4698 5.537 18.4269 6.31899 17.2761 6.91155C15.6455 7.75462 13.8355 8.19191 11.9998 8.18632H11.9989ZM4.48414 4.32509C5.2946 5.12078 6.22783 5.78262 7.24691 6.28478C8.75259 7.02575 10.4107 7.40438 12.0887 7.39044C13.7668 7.37649 15.4184 6.97036 16.9115 6.20447C17.8682 5.71198 18.7454 5.07843 19.5137 4.32509C17.5091 2.35504 14.8095 1.25344 11.9989 1.25862C11.8355 1.25862 11.6758 1.25862 11.5245 1.26785C8.87992 1.3793 6.37099 2.4688 4.48414 4.32509ZM11.9989 23.538C10.434 23.542 8.88493 23.2257 7.44685 22.6086C6.00877 21.9916 4.71215 21.0868 3.63676 19.95C3.56643 19.8761 3.52722 19.7779 3.52722 19.6759C3.52722 19.5738 3.56643 19.4757 3.63676 19.4017C4.71387 18.2672 6.01085 17.364 7.44855 16.7473C8.88624 16.1306 10.4345 15.8132 11.9989 15.8146C13.8349 15.8091 15.6451 16.2466 17.2752 17.0894C18.426 17.6819 19.4689 18.4639 20.3601 19.4026C20.4305 19.4766 20.4697 19.5747 20.4697 19.6768C20.4697 19.7788 20.4305 19.877 20.3601 19.9509C19.2839 21.0864 17.9873 21.9902 16.5496 22.607C15.1118 23.2238 13.5633 23.5406 11.9989 23.538ZM4.48322 19.6759C6.48747 21.6475 9.18834 22.7494 11.9998 22.7423C14.8101 22.7471 17.5092 21.6455 19.5137 19.6759C17.5069 17.7088 14.8089 16.6071 11.9989 16.6071C9.1889 16.6071 6.48997 17.7088 4.48322 19.6759ZM23.1386 12.3983H0.858295C0.75278 12.3983 0.651586 12.3564 0.576976 12.2818C0.502365 12.2072 0.460449 12.106 0.460449 12.0005C0.460449 11.895 0.502365 11.7938 0.576976 11.7192C0.651586 11.6445 0.75278 11.6026 0.858295 11.6026H23.1377C23.2432 11.6026 23.3444 11.6445 23.419 11.7192C23.4936 11.7938 23.5355 11.895 23.5355 12.0005C23.5355 12.106 23.4936 12.2072 23.419 12.2818C23.3444 12.3564 23.2441 12.3983 23.1386 12.3983Z" fill="inherit"/>
    <path d="M11.9989 23.538C11.8934 23.538 11.7922 23.496 11.7176 23.4214C11.643 23.3468 11.6011 23.2456 11.6011 23.1401V0.860737C11.6011 0.808491 11.6114 0.756757 11.6314 0.708488C11.6514 0.660219 11.6807 0.61636 11.7176 0.579417C11.7545 0.542474 11.7984 0.513168 11.8467 0.493175C11.8949 0.473181 11.9467 0.462891 11.9989 0.462891C12.0512 0.462891 12.1029 0.473181 12.1512 0.493175C12.1994 0.513168 12.2433 0.542474 12.2802 0.579417C12.3172 0.61636 12.3465 0.660219 12.3665 0.708488C12.3865 0.756757 12.3968 0.808491 12.3968 0.860737V23.1401C12.3968 23.1923 12.3865 23.244 12.3665 23.2922C12.3465 23.3404 12.3171 23.3842 12.2802 23.4211C12.2432 23.458 12.1994 23.4872 12.1511 23.5071C12.1028 23.527 12.0511 23.5372 11.9989 23.537V23.538Z" fill="inherit"/>
  </g>
  <defs>
    <clipPath id="clip0_3378_42484">
      <rect width="24" height="24" fill="inherit"/>
    </clipPath>
  </defs>
</svg>