<svg width="27" height="34" viewBox="0 0 27 34" fill="none" xmlns="http://www.w3.org/2000/svg">
<path d="M8.18855 33.0591L5.80617 28.6673L1 30.0277L6.46219 17.0938L13.6507 20.1252L8.18855 33.0591Z" fill="url(#paint0_linear_4534_53648)"/>
<path d="M19.1062 33.0591L21.4886 28.6673L26.2948 30.0277L20.8326 17.0938L13.6509 20.1252L19.1062 33.0591Z" fill="url(#paint1_linear_4534_53648)"/>
<path d="M8.18855 33.0591L5.80617 28.6673L1 30.0277L6.46219 17.0938L13.6507 20.1252L8.18855 33.0591Z" stroke="url(#paint2_linear_4534_53648)" stroke-width="0.455759" stroke-linejoin="round"/>
<path d="M19.1062 33.0591L21.4886 28.6673L26.2948 30.0277L20.8326 17.0938L13.6509 20.1252L19.1062 33.0591Z" stroke="url(#paint3_linear_4534_53648)" stroke-width="0.455759" stroke-linejoin="round"/>
<path d="M25.8813 13.2881L23.6509 15.9675L24.2447 19.4064L20.9647 20.6079L19.7631 23.8811L16.3311 23.2872L13.6518 25.5246L10.9725 23.2872L7.5336 23.8811L6.33206 20.6079L3.0589 19.4064L3.65276 15.9675L1.41541 13.2881L3.65276 10.6088L3.0589 7.17682L6.33206 5.97527L7.5336 2.69519L10.9725 3.28905L13.6518 1.05859L16.3311 3.28905L19.77 2.69519L20.9647 5.97527L24.2447 7.17682L23.6509 10.6088L25.8813 13.2881Z" fill="url(#paint4_linear_4534_53648)"/>
<path d="M19.6336 19.2735C22.9398 15.9673 22.9398 10.6069 19.6336 7.30069C16.3274 3.99448 10.967 3.99447 7.66078 7.30068C4.35459 10.6069 4.35458 15.9673 7.66078 19.2735C10.967 22.5797 16.3274 22.5797 19.6336 19.2735Z" fill="url(#paint5_linear_4534_53648)"/>
<path d="M25.8813 13.2881L23.6509 15.9675L24.2447 19.4064L20.9647 20.6079L19.7631 23.8811L16.3311 23.2872L13.6518 25.5246L10.9725 23.2872L7.5336 23.8811L6.33206 20.6079L3.0589 19.4064L3.65276 15.9675L1.41541 13.2881L3.65276 10.6088L3.0589 7.17682L6.33206 5.97527L7.5336 2.69519L10.9725 3.28905L13.6518 1.05859L16.3311 3.28905L19.77 2.69519L20.9647 5.97527L24.2447 7.17682L23.6509 10.6088L25.8813 13.2881Z" stroke="url(#paint6_linear_4534_53648)" stroke-width="0.455759" stroke-linejoin="round"/>
<path d="M19.6336 19.2735C22.9398 15.9673 22.9398 10.6069 19.6336 7.30069C16.3274 3.99448 10.967 3.99447 7.66078 7.30068C4.35459 10.6069 4.35458 15.9673 7.66078 19.2735C10.967 22.5797 16.3274 22.5797 19.6336 19.2735Z" stroke="url(#paint7_linear_4534_53648)" stroke-width="0.455759" stroke-linejoin="round"/>
<path d="M13.6486 7.83203L15.2506 11.0845L18.8345 11.6024L16.2381 14.1298L16.8527 17.6999L13.6486 16.015L10.4376 17.6999L11.0521 14.1298L8.45569 11.6024L12.0465 11.0845L13.6486 7.83203Z" fill="url(#paint8_linear_4534_53648)"/>
<path d="M13.6486 7.83203L15.2506 11.0845L18.8345 11.6024L16.2381 14.1298L16.8527 17.6999L13.6486 16.015L10.4376 17.6999L11.0521 14.1298L8.45569 11.6024L12.0465 11.0845L13.6486 7.83203Z" stroke="url(#paint9_linear_4534_53648)" stroke-width="0.455759" stroke-miterlimit="10"/>
<defs>
<linearGradient id="paint0_linear_4534_53648" x1="10.3845" y1="17.7843" x2="4.19027" y2="32.555" gradientUnits="userSpaceOnUse">
<stop stop-color="#F6F3BE"/>
<stop offset="0.42" stop-color="#E1B04E"/>
<stop offset="0.76" stop-color="#F6F3BE"/>
<stop offset="1" stop-color="#BD8B36"/>
</linearGradient>
<linearGradient id="paint1_linear_4534_53648" x1="16.9586" y1="17.4459" x2="22.3794" y2="31.1809" gradientUnits="userSpaceOnUse">
<stop stop-color="#F6F3BE"/>
<stop offset="0.42" stop-color="#E1B04E"/>
<stop offset="0.76" stop-color="#F6F3BE"/>
<stop offset="1" stop-color="#BD8B36"/>
</linearGradient>
<linearGradient id="paint2_linear_4534_53648" x1="0.772121" y1="25.0764" x2="13.8786" y2="25.0764" gradientUnits="userSpaceOnUse">
<stop stop-color="#F6F3BE"/>
<stop offset="0.42" stop-color="#E1B04E"/>
<stop offset="0.76" stop-color="#F6F3BE"/>
<stop offset="1" stop-color="#BD8B36"/>
</linearGradient>
<linearGradient id="paint3_linear_4534_53648" x1="13.4231" y1="25.0764" x2="26.5226" y2="25.0764" gradientUnits="userSpaceOnUse">
<stop stop-color="#F6F3BE"/>
<stop offset="0.42" stop-color="#E1B04E"/>
<stop offset="0.76" stop-color="#F6F3BE"/>
<stop offset="1" stop-color="#BD8B36"/>
</linearGradient>
<linearGradient id="paint4_linear_4534_53648" x1="1.41541" y1="13.2881" x2="25.8813" y2="13.2881" gradientUnits="userSpaceOnUse">
<stop stop-color="#F6F3BE"/>
<stop offset="0.42" stop-color="#E1B04E"/>
<stop offset="0.76" stop-color="#F6F3BE"/>
<stop offset="1" stop-color="#BD8B36"/>
</linearGradient>
<linearGradient id="paint5_linear_4534_53648" x1="9.40949" y1="5.9547" x2="17.8825" y2="20.6219" gradientUnits="userSpaceOnUse">
<stop stop-color="#C0A150"/>
<stop offset="0.04" stop-color="#B99748"/>
<stop offset="0.14" stop-color="#AD863D"/>
<stop offset="0.24" stop-color="#A77D36"/>
<stop offset="0.38" stop-color="#A57A34"/>
<stop offset="1" stop-color="#C0A150"/>
</linearGradient>
<linearGradient id="paint6_linear_4534_53648" x1="13.6518" y1="0.830714" x2="13.6518" y2="25.7525" gradientUnits="userSpaceOnUse">
<stop stop-color="#F6F3BE"/>
<stop offset="0.42" stop-color="#E1B04E"/>
<stop offset="0.76" stop-color="#F6F3BE"/>
<stop offset="1" stop-color="#BD8B36"/>
</linearGradient>
<linearGradient id="paint7_linear_4534_53648" x1="4.94859" y1="13.2883" x2="22.3433" y2="13.2883" gradientUnits="userSpaceOnUse">
<stop stop-color="#BD8B36"/>
<stop offset="0.24" stop-color="#F6F3BE"/>
<stop offset="0.58" stop-color="#E1B04E"/>
<stop offset="1" stop-color="#F6F3BE"/>
</linearGradient>
<linearGradient id="paint8_linear_4534_53648" x1="2.90373" y1="12.7694" x2="17.8402" y2="12.7694" gradientUnits="userSpaceOnUse">
<stop stop-color="#F6F3BE"/>
<stop offset="0.42" stop-color="#E1B04E"/>
<stop offset="0.76" stop-color="#F6F3BE"/>
<stop offset="1" stop-color="#BD8B36"/>
</linearGradient>
<linearGradient id="paint9_linear_4534_53648" x1="13.6486" y1="7.32103" x2="13.6486" y2="18.1212" gradientUnits="userSpaceOnUse">
<stop stop-color="#F6F3BE"/>
<stop offset="0.42" stop-color="#E1B04E"/>
<stop offset="0.76" stop-color="#F6F3BE"/>
<stop offset="1" stop-color="#BD8B36"/>
</linearGradient>
</defs>
</svg>
