<svg width="32" height="32" viewBox="0 0 32 32" fill="none" xmlns="http://www.w3.org/2000/svg">
<path d="M17.4211 3.53375C16.2392 2.82208 14.7608 2.82208 13.5789 3.53375L12.7243 4.04833C10.6508 5.29689 8.32302 6.06305 5.9133 6.29008L5.3749 6.3408C4.31213 6.44093 3.5 7.33317 3.5 8.40065V11.1216C3.5 15.7207 5.36717 20.1227 8.6738 23.3193L14.062 28.5281C14.8639 29.3034 16.1361 29.3034 16.938 28.5281L22.3262 23.3193C25.6328 20.1227 27.5 15.7207 27.5 11.1216V8.40065C27.5 7.33317 26.6879 6.44093 25.6251 6.34081L25.0867 6.29008C22.677 6.06305 20.3492 5.29689 18.2757 4.04833L17.4211 3.53375Z" fill="url(#paint0_linear_6725_66808)"/>
<path d="M20.1371 20.984L12.0251 21V19.464L15.8491 16.232C17.4331 14.888 17.9611 14.12 17.9611 13C17.9611 11.672 17.2411 10.92 16.0091 10.92C14.7291 10.92 13.9291 11.816 13.9131 13.32H11.8811C11.8971 10.76 13.5291 9.096 16.0091 9.096C18.5051 9.096 20.0571 10.52 20.0571 12.888C20.0571 14.52 19.1611 15.752 17.3851 17.272L15.2731 19.08H20.1371V20.984Z" fill="#0A0C22"/>
<defs>
<linearGradient id="paint0_linear_6725_66808" x1="15.5" y1="3" x2="15.5" y2="29.1096" gradientUnits="userSpaceOnUse">
<stop stop-color="#919191" stop-opacity="0.68"/>
<stop offset="0.533333" stop-color="#CACACA"/>
<stop offset="1" stop-color="white"/>
</linearGradient>
</defs>
</svg>
