<svg width="157" height="30" viewBox="0 0 157 30" fill="none" xmlns="http://www.w3.org/2000/svg">
<path d="M0.6 28.96V1.04C0.6 0.4 1.16 -2.38419e-06 2 -2.38419e-06H19.6C20.08 -2.38419e-06 20.56 0.239999 20.88 0.639999L23.52 3.96C23.8 4.32 24 4.88 24 5.36V11.76C24 12.24 23.8 12.8 23.52 13.16L20.88 16.48C20.56 16.88 20.08 17.12 19.6 17.12H8.6V28.96C8.6 29.6 8.04 30 7.2 30H2C1.16 30 0.6 29.6 0.6 28.96ZM0.6 5.68L8.6 6.48V11.44H15.16C15.68 11.44 16 11.12 16 10.64V6.48C16 6 15.68 5.68 15.16 5.68H0.6ZM33 23.36V23.52C33 24 33.32 24.32 33.8 24.32H42.8C43.28 24.32 43.6 24.64 43.6 25.12V29.2C43.6 29.68 43.28 30 42.8 30H29.8C29.32 30 28.76 29.72 28.48 29.36L25.88 26.04C25.6 25.68 25.4 25.12 25.4 24.64V15.36C25.4 14.88 25.6 14.32 25.88 13.96L28.48 10.64C28.76 10.28 29.32 10 29.8 10H40C40.48 10 41.04 10.28 41.32 10.64L43.92 13.96C44.2 14.32 44.4 14.88 44.4 15.36V17.2C44.4 17.68 44.2 18.24 43.92 18.6L41.32 21.92C41.04 22.28 40.48 22.56 40 22.56H33.8C33.32 22.56 33 22.88 33 23.36ZM36.8 17.28V16.48C36.8 16 36.48 15.68 36 15.68H25.4L33 16.48V17.28C33 17.76 33.32 18.08 33.8 18.08H36C36.48 18.08 36.8 17.76 36.8 17.28ZM62.8016 15.68H47.0416L54.6416 16.48V28.96C54.6416 29.6 54.0816 30 53.2416 30H48.4416C47.6016 30 47.0416 29.6 47.0416 28.96V15.36C47.0416 14.88 47.2416 14.32 47.5216 13.96L50.1616 10.64C50.4816 10.24 50.9616 10 51.4416 10H62.8016C63.4416 10 63.8416 10.56 63.8416 11.4V14.28C63.8416 15.12 63.4416 15.68 62.8016 15.68ZM65.865 17.4V15.36C65.865 14.88 66.065 14.32 66.345 13.96L68.945 10.64C69.225 10.28 69.785 10 70.265 10H84.185C84.665 10 84.985 10.32 84.985 10.8V14.88C84.985 15.36 84.665 15.68 84.185 15.68H65.865L73.465 16.48V16.88C73.465 17.4 73.905 17.72 74.345 17.72H80.985C81.465 17.72 81.985 18 82.305 18.36L84.905 21.28C85.225 21.64 85.385 21.92 85.385 22.4V24.64C85.385 25.12 85.185 25.68 84.905 26.04L82.305 29.36C82.025 29.72 81.465 30 80.985 30H67.065C66.585 30 66.265 29.68 66.265 29.2V25.12C66.265 24.64 66.585 24.32 67.065 24.32H85.385L77.785 23.52V23.12C77.785 22.68 77.545 22.36 77.105 22.36H70.265C69.785 22.36 69.265 22.08 68.945 21.72L66.345 18.8C66.025 18.44 65.865 17.88 65.865 17.4ZM87.8172 24.64V15.36C87.8172 14.88 88.0172 14.32 88.2972 13.96L90.8972 10.64C91.1772 10.28 91.7372 10 92.2172 10H105.617C106.097 10 106.657 10.28 106.937 10.64L109.537 13.96C109.817 14.32 110.017 14.88 110.017 15.36V24.64C110.017 25.12 109.817 25.68 109.537 26.04L106.937 29.36C106.657 29.72 106.097 30 105.617 30H92.2172C91.7372 30 91.1772 29.72 90.8972 29.36L88.2972 26.04C88.0172 25.68 87.8172 25.12 87.8172 24.64ZM95.4172 16.48V23.52C95.4172 24 95.7372 24.32 96.2172 24.32H110.017L102.417 23.52V16.48C102.417 16 102.097 15.68 101.617 15.68H87.8172L95.4172 16.48ZM112.627 28.96V15.36C112.627 14.88 112.827 14.32 113.107 13.96L115.747 10.64C116.067 10.24 116.547 10 117.027 10H126.027L125.187 15.68H112.627L120.227 16.48V28.96C120.227 29.6 119.667 30 118.827 30H114.027C113.187 30 112.627 29.6 112.627 28.96ZM126.027 28.96V10H129.227C129.707 10 130.187 10.24 130.507 10.64L133.147 13.96C133.427 14.32 133.627 14.88 133.627 15.36V28.96C133.627 29.6 133.067 30 132.227 30H127.427C126.587 30 126.027 29.6 126.027 28.96ZM156.096 30H140.616C140.136 30 139.616 29.76 139.296 29.36L136.696 26.04C136.416 25.68 136.216 25.12 136.216 24.64V15.36C136.216 14.88 136.416 14.32 136.696 13.96L139.296 10.64C139.616 10.24 140.136 10 140.616 10H156.096C156.576 10 156.896 10.32 156.896 10.8V29.2C156.896 29.68 156.576 30 156.096 30ZM144.616 24.32H156.896L149.296 23.52V16.48C149.296 16 148.976 15.68 148.496 15.68H136.216L143.816 16.48V23.52C143.816 24 144.136 24.32 144.616 24.32Z" fill="#070707"/>
</svg>
